/* XPM */
static char * helloWorld_xpm[] = {
"32 32 181 2",
"  	c None",
". 	c #9FB2BC",
"+ 	c #9EB2BC",
"@ 	c #9EB1BC",
"# 	c #9FB1BC",
"$ 	c #9DB2BC",
"% 	c #9CB2BC",
"& 	c #9DB2BD",
"* 	c #9DB1BC",
"= 	c #9CB1BC",
"- 	c #9DB1BD",
"; 	c #9BB1BC",
"> 	c #9BB0BD",
", 	c #9BB0BC",
"' 	c #9CB0BC",
") 	c #9AB0BC",
"! 	c #9AB1BC",
"~ 	c #9AB1BD",
"{ 	c #9BB1BD",
"] 	c #9AB0BD",
"^ 	c #98B0BC",
"/ 	c #99B0BC",
"( 	c #99B0BD",
"_ 	c #99B1BC",
": 	c #97B0BC",
"< 	c #97AFBC",
"[ 	c #98AFBC",
"} 	c #98B0BD",
"| 	c #97B0BD",
"1 	c #96AFBC",
"2 	c #96AFBD",
"3 	c #96B0BC",
"4 	c #95AEBC",
"5 	c #95AFBD",
"6 	c #94AFBC",
"7 	c #95AFBC",
"8 	c #94AEBC",
"9 	c #95AEBD",
"0 	c #93AEBC",
"a 	c #93AFBC",
"b 	c #94AEBD",
"c 	c #93AFBD",
"d 	c #93AEBD",
"e 	c #94AFBD",
"f 	c #92AEBD",
"g 	c #92AEBC",
"h 	c #121517",
"i 	c #91ADBC",
"j 	c #91AEBD",
"k 	c #91AEBC",
"l 	c #0E1113",
"m 	c #455259",
"n 	c #374147",
"o 	c #47565E",
"p 	c #687C86",
"q 	c #3E4A51",
"r 	c #3E4B51",
"s 	c #748B97",
"t 	c #91ADBD",
"u 	c #647882",
"v 	c #353F45",
"w 	c #364046",
"x 	c #657883",
"y 	c #90AEBD",
"z 	c #8FADBC",
"A 	c #8FADBD",
"B 	c #90ADBD",
"C 	c #90ADBC",
"D 	c #8FACBB",
"E 	c #111516",
"F 	c #111517",
"G 	c #47565D",
"H 	c #425057",
"I 	c #8DABBA",
"J 	c #8EACBB",
"K 	c #8EADBC",
"L 	c #8EADBD",
"M 	c #8EACBD",
"N 	c #8EACBC",
"O 	c #101416",
"P 	c #8CAAB9",
"Q 	c #8DACBC",
"R 	c #8FACBD",
"S 	c #8DADBC",
"T 	c #8DADBD",
"U 	c #8DACBD",
"V 	c #627884",
"W 	c #303B40",
"X 	c #404E55",
"Y 	c #617782",
"Z 	c #8CACBC",
"` 	c #8CADBC",
" .	c #5F7480",
"..	c #354147",
"+.	c #607681",
"@.	c #8BABBC",
"#.	c #8BACBC",
"$.	c #8BACBD",
"%.	c #8CACBD",
"&.	c #8BABBD",
"*.	c #8CABBC",
"=.	c #8AACBC",
"-.	c #8AABBD",
";.	c #8AABBC",
">.	c #8AACBD",
",.	c #89ABBD",
"'.	c #89ABBC",
").	c #88ABBD",
"!.	c #89AABD",
"~.	c #89AABC",
"{.	c #88AABD",
"].	c #88ABBC",
"^.	c #87ABBC",
"/.	c #88AABC",
"(.	c #87AABC",
"_.	c #87ABBD",
":.	c #87AABD",
"<.	c #86AABC",
"[.	c #86AABD",
"}.	c #86ABBD",
"|.	c #101517",
"1.	c #85AABD",
"2.	c #85AABC",
"3.	c #85A9BC",
"4.	c #85A9BD",
"5.	c #84A9BC",
"6.	c #84A9BD",
"7.	c #84AABC",
"8.	c #83A9BD",
"9.	c #83A9BC",
"0.	c #84AABD",
"a.	c #83AABD",
"b.	c #82A9BD",
"c.	c #83A8BD",
"d.	c #83A8BC",
"e.	c #0F1416",
"f.	c #82A9BC",
"g.	c #82A8BC",
"h.	c #81A9BC",
"i.	c #81A9BD",
"j.	c #81A8BD",
"k.	c #82A8BD",
"l.	c #506A76",
"m.	c #303F47",
"n.	c #81A8BC",
"o.	c #80A8BD",
"p.	c #80A7BD",
"q.	c #7FA8BD",
"r.	c #80A8BC",
"s.	c #7FA8BC",
"t.	c #7EA8BD",
"u.	c #7EA7BD",
"v.	c #7EA8BC",
"w.	c #7FA7BC",
"x.	c #7EA7BC",
"y.	c #7FA7BD",
"z.	c #7DA7BC",
"A.	c #7DA7BD",
"B.	c #7BA7BD",
"C.	c #7CA7BD",
"D.	c #7CA7BC",
"E.	c #7BA7BC",
"F.	c #7BA6BD",
"G.	c #7CA6BD",
"H.	c #7CA6BC",
"I.	c #7AA7BD",
"J.	c #7AA6BD",
"K.	c #7BA6BC",
"L.	c #7AA6BC",
"M.	c #79A5BD",
"N.	c #79A6BD",
"O.	c #7AA5BD",
"P.	c #79A5BC",
"Q.	c #78A5BD",
"R.	c #78A5BC",
"S.	c #78A6BD",
"T.	c #77A5BD",
"U.	c #77A6BD",
"V.	c #78A6BC",
"W.	c #76A5BD",
"X.	c #77A4BD",
". + @ # . . . + + + + + + . + . . + + . + . . + . . + . . . . . ",
"+ @ @ + @ + $ + + + + + + + @ + @ + @ + + + @ + + + + + + + + + ",
"% % % & $ * % * * * * * = = % * = * * $ - * = $ * * $ * = * = $ ",
"; ; ; ; ; ; ; ; ; ; = = ; > , = , = ; = ; ; ; ; ; = = > ' ; ; ; ",
") ! ! ~ ) ! ) ) ! ! ! ! { ] ~ ) ) ) ) ! ! ) ) ! ) ) ! ) ) ! ! ) ",
"^ / / / / / ( ^ / ( ^ / / ^ ^ ( ( / / / / / / / / / / / _ / ^ / ",
": : : < [ : ^ [ ^ [ : ^ < < [ ^ : } | | ^ ^ : ^ < [ [ < : [ : : ",
"1 : 2 1 2 1 3 1 1 1 1 2 1 1 1 2 1 3 1 1 2 1 1 1 3 2 3 < : 3 2 1 ",
"4 5 6 7 8 9 9 7 7 7 7 7 7 4 5 7 7 6 7 4 4 7 4 7 4 6 6 7 5 4 7 4 ",
"0 8 8 0 0 a a 0 b 0 a a 8 a 8 c 6 a 8 a d e 6 d 8 c 0 8 8 6 a b ",
"f f g 0 g g f h f f f 0 g g g f h g g h g f g g f g 0 g f g g f ",
"i i i i j i k l m n o p q r s i h t j h k u v w x y i j i k k j ",
"z A A B C C A l D z E F o G H C h A C F A h I J h C B C C C z z ",
"z K K K L M A F L N F O P M N z F N L F N F Q Q F K A R M z K K ",
"Q S Q T U Q U F Q U F V W X Y Z F ` Q F S  .....+.U U U Q U U U ",
"Z @.Z @.#.Z Z Z $.Z %.%.%.$.Z &.%.%.Z %.*.#.#.Z #.%.@.%.$.#.Z %.",
"=.-.-.;.&.=.>.-.=.=.=.>.>.-.=.-.-.-.@.@.$.-.;.;.;.-.$.=.@.&.@.#.",
",.'.'.,.'.).'.,.'.'.!.,.,.,.,.,.,.'.,.,.,.'.,.'.'.~.'.,.'.,.'.,.",
"{.].^.^./.(.].].].].(.{.].^.{.)./.)._.(._.:.].].:.^.].].).{.{.).",
"<.:.[.[.<.[.[.<.}.:.[.[.|.:.<.|.<.|.:.(.[.(.<.[.(.:.(.[.[.[.[.[.",
"1.1.2.2.1.1.3.1.4.1.1.1.|.2.1.|.1.|.4.2.1.4.4.2.1.3.1.1.4.4.3.[.",
"5.6.7.8.9.6.6.0.9.6.0.6.|.6.8.|.6.|.6.5.6.0.5.a.5.0.6.8.6.6.5.8.",
"9.8.8.b.c.b.9.b.8.b.8.d.e.8.f.e.8.|.b.b.d.f.g.f.b.9.b.c.8.c.c.g.",
"h.i.j.k.j.k.h.j.i.k.i.j.l.m.m.l.b.|.n.i.j.i.i.i.i.j.n.k.h.j.i.n.",
"o.o.p.o.o.q.q.o.r.r.r.o.o.o.o.o.o.s.o.o.r.q.q.o.r.o.o.r.q.q.o.o.",
"t.u.q.q.t.u.v.u.w.x.s.u.u.u.y.u.y.t.t.t.q.w.u.u.q.w.q.v.y.u.u.u.",
"z.A.x.z.z.A.A.A.A.z.A.x.A.u.u.A.A.A.A.z.z.A.A.A.A.A.A.A.z.x.z.A.",
"B.C.D.C.C.D.E.C.C.D.B.F.C.C.G.G.C.C.C.C.C.H.C.D.C.G.C.C.G.C.C.G.",
"I.F.F.F.J.F.K.L.B.J.J.J.J.F.J.K.J.J.F.F.F.B.F.J.F.F.J.L.B.I.I.F.",
"M.J.N.N.J.N.J.N.J.J.O.N.N.M.J.N.P.N.M.N.N.N.M.M.M.N.N.J.J.N.M.M.",
"Q.R.S.S.S.Q.Q.Q.S.S.Q.Q.Q.T.Q.U.S.S.U.Q.Q.S.Q.V.Q.S.T.R.S.Q.S.Q.",
"T.T.W.T.W.T.W.T.W.T.X.W.T.W.T.T.T.T.W.T.T.T.T.W.T.T.T.W.T.W.W.T."};
