/* XPM */
static char * melPolySphere_xpm[] = {
"32 32 172 2",
"  	c None",
". 	c #9FB2BC",
"+ 	c #9EB2BC",
"@ 	c #9EB1BC",
"# 	c #9FB1BC",
"$ 	c #9DB2BC",
"% 	c #9CB2BC",
"& 	c #9DB2BD",
"* 	c #9DB1BC",
"= 	c #9CB1BC",
"- 	c #9DB1BD",
"; 	c #9BB1BC",
"> 	c #9BB0BD",
", 	c #9BB0BC",
"' 	c #9CB0BC",
") 	c #9AB0BC",
"! 	c #9AB1BC",
"~ 	c #9AB1BD",
"{ 	c #9BB1BD",
"] 	c #9AB0BD",
"^ 	c #98B0BC",
"/ 	c #99B0BC",
"( 	c #99B0BD",
"_ 	c #99B1BC",
": 	c #97B0BC",
"< 	c #97AFBC",
"[ 	c #98AFBC",
"} 	c #98B0BD",
"| 	c #97B0BD",
"1 	c #96AFBC",
"2 	c #96AFBD",
"3 	c #96B0BC",
"4 	c #95AEBC",
"5 	c #95AFBD",
"6 	c #94AFBC",
"7 	c #95AFBC",
"8 	c #94AEBC",
"9 	c #95AEBD",
"0 	c #93AEBC",
"a 	c #93AFBC",
"b 	c #94AEBD",
"c 	c #93AFBD",
"d 	c #93AEBD",
"e 	c #94AFBD",
"f 	c #92AEBD",
"g 	c #92AEBC",
"h 	c #91ADBC",
"i 	c #91AEBD",
"j 	c #91AEBC",
"k 	c #90ADBC",
"l 	c #90AEBD",
"m 	c #91ADBD",
"n 	c #8FADBC",
"o 	c #8FADBD",
"p 	c #90ADBD",
"q 	c #8EADBC",
"r 	c #8EADBD",
"s 	c #8EACBD",
"t 	c #8FACBD",
"u 	c #0B0D0E",
"v 	c #5D717C",
"w 	c #5E717B",
"x 	c #8EACBC",
"y 	c #0C0F10",
"z 	c #39454B",
"A 	c #39454C",
"B 	c #738D99",
"C 	c #111517",
"D 	c #8DACBC",
"E 	c #8DADBC",
"F 	c #8DADBD",
"G 	c #8DACBD",
"H 	c #20272A",
"I 	c #8CACBC",
"J 	c #8CADBC",
"K 	c #8BABBC",
"L 	c #8BACBC",
"M 	c #8BACBD",
"N 	c #5A6F7A",
"O 	c #75909E",
"P 	c #8BABBD",
"Q 	c #0C0F11",
"R 	c #38454C",
"S 	c #38454B",
"T 	c #7F9CAB",
"U 	c #8CABBC",
"V 	c #8CACBD",
"W 	c #8AACBC",
"X 	c #8AABBD",
"Y 	c #8AABBC",
"Z 	c #8AACBD",
"` 	c #85A5B5",
" .	c #14181B",
"..	c #85A6B7",
"+.	c #89ABBD",
"@.	c #89ABBC",
"#.	c #88ABBD",
"$.	c #89AABD",
"%.	c #85A6B8",
"&.	c #37454B",
"*.	c #37454C",
"=.	c #657E8C",
"-.	c #7795A4",
";.	c #89AABC",
">.	c #88AABD",
",.	c #88ABBC",
"'.	c #87ABBC",
").	c #88AABC",
"!.	c #87AABC",
"~.	c #87ABBD",
"{.	c #87AABD",
"].	c #86AABC",
"^.	c #86AABD",
"/.	c #86ABBD",
"(.	c #86ABBC",
"_.	c #85AABD",
":.	c #85AABC",
"<.	c #85A9BC",
"[.	c #85A9BD",
"}.	c #84A9BC",
"|.	c #84A9BD",
"1.	c #84AABC",
"2.	c #83A9BD",
"3.	c #83A9BC",
"4.	c #84AABD",
"5.	c #83AABD",
"6.	c #82A9BD",
"7.	c #83A8BD",
"8.	c #83A8BC",
"9.	c #82A9BC",
"0.	c #82A8BD",
"a.	c #82A8BC",
"b.	c #81A9BC",
"c.	c #81A9BD",
"d.	c #81A8BD",
"e.	c #81A8BC",
"f.	c #80A8BD",
"g.	c #80A7BD",
"h.	c #7FA8BD",
"i.	c #80A8BC",
"j.	c #7FA8BC",
"k.	c #7EA8BD",
"l.	c #7EA7BD",
"m.	c #7EA8BC",
"n.	c #7FA7BC",
"o.	c #7EA7BC",
"p.	c #7FA7BD",
"q.	c #7DA7BC",
"r.	c #7DA7BD",
"s.	c #7BA7BD",
"t.	c #7CA7BD",
"u.	c #7CA7BC",
"v.	c #7BA7BC",
"w.	c #7BA6BD",
"x.	c #7CA6BD",
"y.	c #7CA6BC",
"z.	c #7AA7BD",
"A.	c #7AA6BD",
"B.	c #7BA6BC",
"C.	c #7AA6BC",
"D.	c #79A5BD",
"E.	c #79A6BD",
"F.	c #7AA5BD",
"G.	c #79A5BC",
"H.	c #78A5BD",
"I.	c #78A5BC",
"J.	c #78A6BD",
"K.	c #77A5BD",
"L.	c #77A6BD",
"M.	c #78A6BC",
"N.	c #76A5BD",
"O.	c #77A4BD",
". + @ # . . . + + + + + + . + . . + + . + . . + . . + . . . . . ",
"+ @ @ + @ + $ + + + + + + + @ + @ + @ + + + @ + + + + + + + + + ",
"% % % & $ * % * * * * * = = % * = * * $ - * = $ * * $ * = * = $ ",
"; ; ; ; ; ; ; ; ; ; = = ; > , = , = ; = ; ; ; ; ; = = > ' ; ; ; ",
") ! ! ~ ) ! ) ) ! ! ! ! { ] ~ ) ) ) ) ! ! ) ) ! ) ) ! ) ) ! ! ) ",
"^ / / / / / ( ^ / ( ^ / / ^ ^ ( ( / / / / / / / / / / / _ / ^ / ",
": : : < [ : ^ [ ^ [ : ^ < < [ ^ : } | | ^ ^ : ^ < [ [ < : [ : : ",
"1 : 2 1 2 1 3 1 1 1 1 2 1 1 1 2 1 3 1 1 2 1 1 1 3 2 3 < : 3 2 1 ",
"4 5 6 7 8 9 9 7 7 7 7 7 7 4 5 7 7 6 7 4 4 7 4 7 4 6 6 7 5 4 7 4 ",
"0 8 8 0 0 a a 0 b 0 a a 8 a 8 c 6 a 8 a d e 6 d 8 c 0 8 8 6 a b ",
"f f g 0 g g f g f f f 0 g g g f g g g f g f g g f g 0 g f g g f ",
"h h h h i h j k h h l j h i h h h m i k j h m m h l h i h j j i ",
"n o o p k k o n k n o o o n n k p o k o o p n l k k p k k k n n ",
"n q q q r s o t r u v s w u x n y z A B x C r r n q o t s n q q ",
"D E D F G D G D D C H G H C D I C J D G E C D D D G G G D G G G ",
"I K I K L I I I M C N O N C I P Q R S T U C L I L V K V M L I V ",
"W X X Y P W Z X W C `  ...C W X C X K K M C Y Y Y X M W K P K L ",
"+.@.@.+.@.#.@.+.@.C $.%.+.C +.+.Q &.*.=.+.y *.&.-.;.@.+.@.+.@.+.",
">.,.'.'.).!.,.,.,.,.!.>.,.'.>.#.).#.~.!.~.{.,.,.{.'.,.,.#.>.>.#.",
"].{.^.^.].^.^.]./.{.^.^.(.{.].~.].^.{.!.^.!.].^.!.{.!.^.^.^.^.^.",
"_._.:.:._._.<._.[._._._._.:._._._.:.[.:._.[.[.:._.<._._.[.[.<.^.",
"}.|.1.2.3.|.|.4.3.|.4.|.}.|.2.3.|.|.|.}.|.4.}.5.}.4.|.2.|.|.}.2.",
"3.2.2.6.7.6.3.6.2.6.2.8.3.2.9.0.2.2.6.6.8.9.a.9.6.3.6.7.2.7.7.a.",
"b.c.d.0.d.0.b.d.c.0.c.d.c.d.d.c.6.d.e.c.d.c.c.c.c.d.e.0.b.d.c.e.",
"f.f.g.f.f.h.h.f.i.i.i.f.f.f.f.f.f.j.f.f.i.h.h.f.i.f.f.i.h.h.f.f.",
"k.l.h.h.k.l.m.l.n.o.j.l.l.l.p.l.p.k.k.k.h.n.l.l.h.n.h.m.p.l.l.l.",
"q.r.o.q.q.r.r.r.r.q.r.o.r.l.l.r.r.r.r.q.q.r.r.r.r.r.r.r.q.o.q.r.",
"s.t.u.t.t.u.v.t.t.u.s.w.t.t.x.x.t.t.t.t.t.y.t.u.t.x.t.t.x.t.t.x.",
"z.w.w.w.A.w.B.C.s.A.A.A.A.w.A.B.A.A.w.w.w.s.w.A.w.w.A.C.s.z.z.w.",
"D.A.E.E.A.E.A.E.A.A.F.E.E.D.A.E.G.E.D.E.E.E.D.D.D.E.E.A.A.E.D.D.",
"H.I.J.J.J.H.H.H.J.J.H.H.H.K.H.L.J.J.L.H.H.J.H.M.H.J.K.I.J.H.J.H.",
"K.K.N.K.N.K.N.K.N.K.O.N.K.N.K.K.K.K.N.K.K.K.K.N.K.K.K.N.K.N.N.K."};
