/* XPM */
static char * pythonPolySphere_xpm[] = {
"32 32 197 2",
"  	c None",
". 	c #9FB2BC",
"+ 	c #9EB2BC",
"@ 	c #9EB1BC",
"# 	c #9FB1BC",
"$ 	c #9DB2BC",
"% 	c #9CB2BC",
"& 	c #9DB2BD",
"* 	c #9DB1BC",
"= 	c #9CB1BC",
"- 	c #9DB1BD",
"; 	c #9BB1BC",
"> 	c #9BB0BD",
", 	c #9BB0BC",
"' 	c #9CB0BC",
") 	c #9AB0BC",
"! 	c #9AB1BC",
"~ 	c #9AB1BD",
"{ 	c #9BB1BD",
"] 	c #9AB0BD",
"^ 	c #98B0BC",
"/ 	c #99B0BC",
"( 	c #99B0BD",
"_ 	c #99B1BC",
": 	c #97B0BC",
"< 	c #97AFBC",
"[ 	c #98AFBC",
"} 	c #98B0BD",
"| 	c #97B0BD",
"1 	c #96AFBC",
"2 	c #96AFBD",
"3 	c #96B0BC",
"4 	c #95AEBC",
"5 	c #95AFBD",
"6 	c #94AFBC",
"7 	c #95AFBC",
"8 	c #94AEBC",
"9 	c #95AEBD",
"0 	c #93AEBC",
"a 	c #93AFBC",
"b 	c #94AEBD",
"c 	c #93AFBD",
"d 	c #93AEBD",
"e 	c #94AFBD",
"f 	c #92AEBD",
"g 	c #92AEBC",
"h 	c #91ADBC",
"i 	c #91AEBD",
"j 	c #91AEBC",
"k 	c #90ADBC",
"l 	c #90AEBD",
"m 	c #91ADBD",
"n 	c #8FADBC",
"o 	c #8FADBD",
"p 	c #90ADBD",
"q 	c #8EADBC",
"r 	c #0C0F10",
"s 	c #3C4950",
"t 	c #364147",
"u 	c #495861",
"v 	c #8FACBD",
"w 	c #8EADBD",
"x 	c #8EACBC",
"y 	c #8EACBD",
"z 	c #111517",
"A 	c #8DACBC",
"B 	c #8DADBC",
"C 	c #8DACBD",
"D 	c #8CABBB",
"E 	c #101416",
"F 	c #354147",
"G 	c #85A3B2",
"H 	c #8BA9BA",
"I 	c #1F262A",
"J 	c #7F9BAB",
"K 	c #080A0B",
"L 	c #46565E",
"M 	c #86A4B3",
"N 	c #0E1113",
"O 	c #43525A",
"P 	c #46555D",
"Q 	c #617783",
"R 	c #333F45",
"S 	c #344046",
"T 	c #627883",
"U 	c #0D1012",
"V 	c #4C5D66",
"W 	c #425159",
"X 	c #46555E",
"Y 	c #8CACBC",
"Z 	c #8BABBC",
"` 	c #3D4B52",
" .	c #38454B",
"..	c #617883",
"+.	c #829FAE",
"@.	c #42525A",
"#.	c #637A85",
"$.	c #6F8896",
"%.	c #8CACBD",
"&.	c #8BACBD",
"*.	c #111416",
"=.	c #8AA9BA",
"-.	c #89AABA",
";.	c #0E1213",
">.	c #8BACBC",
",.	c #8AACBC",
"'.	c #8AABBD",
").	c #8BABBD",
"!.	c #8AACBD",
"~.	c #222B2F",
"{.	c #181F21",
"].	c #89ABBB",
"^.	c #8AABBC",
"/.	c #89AABC",
"(.	c #89ABBD",
"_.	c #89ABBC",
":.	c #88ABBD",
"<.	c #68828F",
"[.	c #516570",
"}.	c #89AABD",
"|.	c #293439",
"1.	c #3F4F57",
"2.	c #83A3B4",
"3.	c #5C7480",
"4.	c #344147",
"5.	c #5E7581",
"6.	c #88AABD",
"7.	c #88ABBC",
"8.	c #87ABBC",
"9.	c #88AABC",
"0.	c #87AABC",
"a.	c #6B8694",
"b.	c #232C30",
"c.	c #84A6B7",
"d.	c #87ABBD",
"e.	c #87AABD",
"f.	c #86AABC",
"g.	c #86AABD",
"h.	c #86ABBD",
"i.	c #86ABBC",
"j.	c #85AABD",
"k.	c #85AABC",
"l.	c #85A9BC",
"m.	c #85A9BD",
"n.	c #84A9BC",
"o.	c #84A9BD",
"p.	c #84AABC",
"q.	c #83A9BD",
"r.	c #83A9BC",
"s.	c #84AABD",
"t.	c #83AABD",
"u.	c #82A9BD",
"v.	c #83A8BD",
"w.	c #83A8BC",
"x.	c #82A9BC",
"y.	c #82A8BD",
"z.	c #82A8BC",
"A.	c #81A9BC",
"B.	c #81A9BD",
"C.	c #81A8BD",
"D.	c #81A8BC",
"E.	c #80A8BD",
"F.	c #80A7BD",
"G.	c #7FA8BD",
"H.	c #80A8BC",
"I.	c #7FA8BC",
"J.	c #7EA8BD",
"K.	c #7EA7BD",
"L.	c #7EA8BC",
"M.	c #7FA7BC",
"N.	c #7EA7BC",
"O.	c #7FA7BD",
"P.	c #7DA7BC",
"Q.	c #7DA7BD",
"R.	c #7BA7BD",
"S.	c #7CA7BD",
"T.	c #7CA7BC",
"U.	c #7BA7BC",
"V.	c #7BA6BD",
"W.	c #7CA6BD",
"X.	c #7CA6BC",
"Y.	c #7AA7BD",
"Z.	c #7AA6BD",
"`.	c #7BA6BC",
" +	c #7AA6BC",
".+	c #79A5BD",
"++	c #79A6BD",
"@+	c #7AA5BD",
"#+	c #79A5BC",
"$+	c #78A5BD",
"%+	c #78A5BC",
"&+	c #78A6BD",
"*+	c #77A5BD",
"=+	c #77A6BD",
"-+	c #78A6BC",
";+	c #76A5BD",
">+	c #77A4BD",
". + @ # . . . + + + + + + . + . . + + . + . . + . . + . . . . . ",
"+ @ @ + @ + $ + + + + + + + @ + @ + @ + + + @ + + + + + + + + + ",
"% % % & $ * % * * * * * = = % * = * * $ - * = $ * * $ * = * = $ ",
"; ; ; ; ; ; ; ; ; ; = = ; > , = , = ; = ; ; ; ; ; = = > ' ; ; ; ",
") ! ! ~ ) ! ) ) ! ! ! ! { ] ~ ) ) ) ) ! ! ) ) ! ) ) ! ) ) ! ! ) ",
"^ / / / / / ( ^ / ( ^ / / ^ ^ ( ( / / / / / / / / / / / _ / ^ / ",
": : : < [ : ^ [ ^ [ : ^ < < [ ^ : } | | ^ ^ : ^ < [ [ < : [ : : ",
"1 : 2 1 2 1 3 1 1 1 1 2 1 1 1 2 1 3 1 1 2 1 1 1 3 2 3 < : 3 2 1 ",
"4 5 6 7 8 9 9 7 7 7 7 7 7 4 5 7 7 6 7 4 4 7 4 7 4 6 6 7 5 4 7 4 ",
"0 8 8 0 0 a a 0 b 0 a a 8 a 8 c 6 a 8 a d e 6 d 8 c 0 8 8 6 a b ",
"f f g 0 g g f g f f f 0 g g g f g g g f g f g g f g 0 g f g g f ",
"h h h h i h j k h h l j h i h h h m i k j h m m h l h i h j j i ",
"n o o p k k o n k n o o o n n k p o k o o p n l k k p k k k n n ",
"n q q r s t u v w x y y z y x z q x w q x w w w n q o v y n q q ",
"A B A z C D E F G H I J K L M N O F P Q R S T A U V W X A C C C ",
"Y Z Y r `  ...+.@.#.$.%.z &.Y N Z %.*.z =.-.z Y ;.%.Z z &.>.Y %.",
",.'.'.z ).,.!.'.~.{.].!.z '.,.z '.'.z z ^./.z ^.z '.&.z Z ).Z >.",
"(._._.z _.:._.(.<.[.}.(.|.1.2.z (._.z 3.4.4.5._.z /._.z _.(._.(.",
"6.7.8.8.9.0.7.a.b.c.0.6.7.8.6.:.9.:.d.0.d.e.7.7.e.8.7.7.:.6.6.:.",
"f.e.g.g.f.g.g.f.h.e.g.g.i.e.f.d.f.g.e.0.g.0.f.g.0.e.0.g.g.g.g.g.",
"j.j.k.k.j.j.l.j.m.j.j.j.j.k.j.j.j.k.m.k.j.m.m.k.j.l.j.j.m.m.l.g.",
"n.o.p.q.r.o.o.s.r.o.s.o.n.o.q.r.o.o.o.n.o.s.n.t.n.s.o.q.o.o.n.q.",
"r.q.q.u.v.u.r.u.q.u.q.w.r.q.x.y.q.q.u.u.w.x.z.x.u.r.u.v.q.v.v.z.",
"A.B.C.y.C.y.A.C.B.y.B.C.B.C.C.B.u.C.D.B.C.B.B.B.B.C.D.y.A.C.B.D.",
"E.E.F.E.E.G.G.E.H.H.H.E.E.E.E.E.E.I.E.E.H.G.G.E.H.E.E.H.G.G.E.E.",
"J.K.G.G.J.K.L.K.M.N.I.K.K.K.O.K.O.J.J.J.G.M.K.K.G.M.G.L.O.K.K.K.",
"P.Q.N.P.P.Q.Q.Q.Q.P.Q.N.Q.K.K.Q.Q.Q.Q.P.P.Q.Q.Q.Q.Q.Q.Q.P.N.P.Q.",
"R.S.T.S.S.T.U.S.S.T.R.V.S.S.W.W.S.S.S.S.S.X.S.T.S.W.S.S.W.S.S.W.",
"Y.V.V.V.Z.V.`. +R.Z.Z.Z.Z.V.Z.`.Z.Z.V.V.V.R.V.Z.V.V.Z. +R.Y.Y.V.",
".+Z.++++Z.++Z.++Z.Z.@+++++.+Z.++#+++.+++++++.+.+.+++++Z.Z.++.+.+",
"$+%+&+&+&+$+$+$+&+&+$+$+$+*+$+=+&+&+=+$+$+&+$+-+$+&+*+%+&+$+&+$+",
"*+*+;+*+;+*+;+*+;+*+>+;+*+;+*+*+*+*+;+*+*+*+*+;+*+*+*+;+*+;+;+*+"};
