/* XPM */
static char * website_xpm[] = {
"32 32 676 2",
"  	c None",
". 	c #9FB2BC",
"+ 	c #9EB2BC",
"@ 	c #9EB1BC",
"# 	c #9FB1BC",
"$ 	c #9DB2BC",
"% 	c #9CB2BC",
"& 	c #9DB2BD",
"* 	c #9DB1BC",
"= 	c #9CB1BC",
"- 	c #9DB1BD",
"; 	c #9BB1BC",
"> 	c #96ABBA",
", 	c #869FB8",
"' 	c #7A95BB",
") 	c #6F8EBE",
"! 	c #6C8DC1",
"~ 	c #6D8FC4",
"{ 	c #7193C4",
"] 	c #799AC2",
"^ 	c #85A1BF",
"/ 	c #90AABD",
"( 	c #9AB0BC",
"_ 	c #9BB0BD",
": 	c #9CB0BC",
"< 	c #9AB1BC",
"[ 	c #9AB1BD",
"} 	c #94ADB3",
"| 	c #7F99B7",
"1 	c #6D8CC2",
"2 	c #678ACE",
"3 	c #6E93DB",
"4 	c #739BE2",
"5 	c #78A1E8",
"6 	c #7AA4EA",
"7 	c #79A5E8",
"8 	c #78A6E6",
"9 	c #74A1E1",
"0 	c #759ED7",
"a 	c #80A2CA",
"b 	c #8EA9B7",
"c 	c #99B1BC",
"d 	c #98B0BC",
"e 	c #99B0BC",
"f 	c #99B0BD",
"g 	c #96AFBA",
"h 	c #8BA795",
"i 	c #84A76E",
"j 	c #7DA289",
"k 	c #83A2BB",
"l 	c #86A7C7",
"m 	c #7EA4EC",
"n 	c #80A6EE",
"o 	c #81A9EF",
"p 	c #81AAEF",
"q 	c #81ADF0",
"r 	c #81B0F1",
"s 	c #86B3E2",
"t 	c #92B2A8",
"u 	c #90AF71",
"v 	c #8EAD97",
"w 	c #95AEB6",
"x 	c #97B0BC",
"y 	c #97AFBC",
"z 	c #98AFBC",
"A 	c #96AEB9",
"B 	c #8AA690",
"C 	c #89AE55",
"D 	c #9BC234",
"E 	c #9DBE2D",
"F 	c #94AE49",
"G 	c #9FB55A",
"H 	c #94B5CC",
"I 	c #8BB1F4",
"J 	c #8AB1F4",
"K 	c #89B0F4",
"L 	c #87AEF2",
"M 	c #84ACF1",
"N 	c #85ACE8",
"O 	c #9DB987",
"P 	c #A2BC36",
"Q 	c #94B727",
"R 	c #8EB145",
"S 	c #8EAE87",
"T 	c #94AEB4",
"U 	c #96AFBC",
"V 	c #96AFBD",
"W 	c #89A793",
"X 	c #87AD5B",
"Y 	c #9EC437",
"Z 	c #AAC92B",
"` 	c #87AA59",
" .	c #93AD6A",
"..	c #9FB778",
"+.	c #A4C2D5",
"@.	c #ACCAF9",
"#.	c #A3C5F9",
"$.	c #95BCF8",
"%.	c #8FB6F6",
"&.	c #8BB2F4",
"*.	c #87ADE7",
"=.	c #86A77D",
"-.	c #7A9F40",
";.	c #8FB036",
">.	c #93B61F",
",.	c #8CB03F",
"'.	c #8BAD86",
").	c #93AEB4",
"!.	c #96B0BC",
"~.	c #95AEBC",
"{.	c #95AFBD",
"].	c #94AFBC",
"^.	c #95AFBC",
"/.	c #94AEBC",
"(.	c #8AA5A3",
"_.	c #85A961",
":.	c #9AC237",
"<.	c #AFCE27",
"[.	c #C4D328",
"}.	c #C8CD5A",
"|.	c #E5E089",
"1.	c #E4E7BF",
"2.	c #E9F1F9",
"3.	c #E7F1FD",
"4.	c #DCEAFD",
"5.	c #BED8FB",
"6.	c #9AC1F9",
"7.	c #90B9F7",
"8.	c #93B6E3",
"9.	c #91AFAF",
"0.	c #99B179",
"a.	c #AAC038",
"b.	c #98B920",
"c.	c #8EB41F",
"d.	c #87AE44",
"e.	c #8BAC93",
"f.	c #94AEBA",
"g.	c #93AEBC",
"h.	c #91ADBA",
"i.	c #82A486",
"j.	c #90B93D",
"k.	c #A7CC26",
"l.	c #BCD127",
"m.	c #D4D72F",
"n.	c #EEE888",
"o.	c #F8F6DA",
"p.	c #F5F6E8",
"q.	c #F3F6F2",
"r.	c #EBF4FE",
"s.	c #E3EFFE",
"t.	c #D6E8FD",
"u.	c #AED0FC",
"v.	c #97C0F9",
"w.	c #91B5C1",
"x.	c #96AE54",
"y.	c #BBC633",
"z.	c #AAC021",
"A.	c #94B420",
"B.	c #91B51F",
"C.	c #8AB126",
"D.	c #86AC5A",
"E.	c #8EACA6",
"F.	c #93AFBC",
"G.	c #94AEBD",
"H.	c #92AEBD",
"I.	c #92AEBC",
"J.	c #87A49D",
"K.	c #85AC55",
"L.	c #9CC62B",
"M.	c #AFCE26",
"N.	c #C8D32A",
"O.	c #E2DF5C",
"P.	c #EFF0D1",
"Q.	c #EFF4E9",
"R.	c #EFF4F2",
"S.	c #F2F6F8",
"T.	c #EEF5FE",
"U.	c #E5F1FE",
"V.	c #D7E9FE",
"W.	c #B8D8FC",
"X.	c #A1C8FA",
"Y.	c #97BFF3",
"Z.	c #96B498",
"`.	c #ABBC45",
" +	c #82A246",
".+	c #6F9652",
"++	c #729930",
"@+	c #759E33",
"#+	c #84AB32",
"$+	c #88AA83",
"%+	c #91ADBC",
"&+	c #7998A2",
"*+	c #8DB548",
"=+	c #A0C825",
"-+	c #B1CC26",
";+	c #C3CF32",
">+	c #D0D786",
",+	c #E5EDE8",
"'+	c #ECF3FA",
")+	c #F2F8FE",
"!+	c #F4F9FE",
"~+	c #F1F7FE",
"{+	c #E9F3FE",
"]+	c #D9EAFD",
"^+	c #BEDBFD",
"/+	c #A9CFFB",
"(+	c #9EC4E6",
"_+	c #9AB272",
":+	c #91AA50",
"<+	c #9EB486",
"[+	c #97B196",
"}+	c #80A191",
"|+	c #89A769",
"1+	c #90B22D",
"2+	c #84A957",
"3+	c #8DACAC",
"4+	c #91AEBC",
"5+	c #91AEBD",
"6+	c #8FADBC",
"7+	c #8FADBD",
"8+	c #8BA8BB",
"9+	c #6E91A0",
"0+	c #8CB53D",
"a+	c #8AB23B",
"b+	c #86A94A",
"c+	c #93B16D",
"d+	c #B3CCCD",
"e+	c #DFECFC",
"f+	c #E8F2FE",
"g+	c #EFF6FE",
"h+	c #F2F8FF",
"i+	c #F0F6FE",
"j+	c #E7F2FE",
"k+	c #D7EAFD",
"l+	c #C1DDFD",
"m+	c #ADD2FC",
"n+	c #9CC5F6",
"o+	c #93B6BA",
"p+	c #B0BD5A",
"q+	c #C5CA32",
"r+	c #B1C230",
"s+	c #A7BC3B",
"t+	c #9AB729",
"u+	c #8BB222",
"v+	c #85AC3C",
"w+	c #8AAA94",
"x+	c #90ADBC",
"y+	c #8EADBC",
"z+	c #82A0B6",
"A+	c #688ABB",
"B+	c #85AE61",
"C+	c #8CB185",
"D+	c #87ACD3",
"E+	c #96BAE1",
"F+	c #AFCEF9",
"G+	c #CAE1FC",
"H+	c #DEEDFD",
"I+	c #E9F2FE",
"J+	c #E0EEFE",
"K+	c #D3E7FD",
"L+	c #C0DDFD",
"M+	c #AED2FC",
"N+	c #A1C7F2",
"O+	c #BFCB8E",
"P+	c #D4D02C",
"Q+	c #C1CA22",
"R+	c #B0C221",
"S+	c #9DB920",
"T+	c #91B41F",
"U+	c #8BB323",
"V+	c #86AD39",
"W+	c #85A780",
"X+	c #8DACBC",
"Y+	c #8DADBC",
"Z+	c #7E9EB7",
"`+	c #688BD0",
" @	c #82A88D",
".@	c #9BBB6A",
"+@	c #91B3D8",
"@@	c #95BAF5",
"#@	c #A6C8F8",
"$@	c #BBD8FA",
"%@	c #CEE3FC",
"&@	c #DEEDFE",
"*@	c #DDEDFE",
"=@	c #D6E9FD",
"-@	c #CBE3FD",
";@	c #BADAFD",
">@	c #AACFFB",
",@	c #A7C7DE",
"'@	c #D2D049",
")@	c #D0CE22",
"!@	c #BFC822",
"~@	c #AEC121",
"{@	c #9CB81F",
"]@	c #8FB424",
"^@	c #8DB032",
"/@	c #85A766",
"(@	c #8DACBD",
"_@	c #8CACBC",
":@	c #8BABBC",
"<@	c #7E9EBA",
"[@	c #6A8DD3",
"}@	c #7BA0B5",
"|@	c #8BB05C",
"1@	c #8DB2BC",
"2@	c #8FB5F4",
"3@	c #9FC3F7",
"4@	c #B0D0F9",
"5@	c #BFDBFB",
"6@	c #CAE2FC",
"7@	c #CFE5FD",
"8@	c #C9E2FD",
"9@	c #BFDCFC",
"0@	c #B2D4FC",
"a@	c #A4CAFA",
"b@	c #A4C4DB",
"c@	c #D1CF3F",
"d@	c #CBCD22",
"e@	c #BBC621",
"f@	c #AABE20",
"g@	c #99B71F",
"h@	c #91B420",
"i@	c #96B727",
"j@	c #93B42D",
"k@	c #84A75B",
"l@	c #8BACBC",
"m@	c #8CACBD",
"n@	c #8AACBC",
"o@	c #8AABBD",
"p@	c #7D9EB9",
"q@	c #6A8DD2",
"r@	c #7A9FE5",
"s@	c #7BA1AE",
"t@	c #83A9C0",
"u@	c #8BB1F3",
"v@	c #97BBF6",
"w@	c #A5C7F8",
"x@	c #B1D2F9",
"y@	c #BAD8FB",
"z@	c #BFDBFC",
"A@	c #BAD8FC",
"B@	c #B2D4FB",
"C@	c #A8CDFA",
"D@	c #9DC4F8",
"E@	c #9BBEDA",
"F@	c #B5C047",
"G@	c #C3CA22",
"H@	c #B5C421",
"I@	c #A5BC20",
"J@	c #97B61F",
"K@	c #94B522",
"L@	c #9EBB2B",
"M@	c #98B630",
"N@	c #85A75D",
"O@	c #8BABBD",
"P@	c #89ABBD",
"Q@	c #89ABBC",
"R@	c #7A9CB6",
"S@	c #688BCF",
"T@	c #7A9FE6",
"U@	c #7EA3E6",
"V@	c #7FA5E6",
"W@	c #85ACF0",
"X@	c #8CB3F3",
"Y@	c #97BCF6",
"Z@	c #A1C5F8",
"`@	c #A9CCF9",
" #	c #ADCFFA",
".#	c #ADD0FA",
"+#	c #AACDFA",
"@#	c #A4C9F9",
"##	c #9CC3F8",
"$#	c #94BCF7",
"%#	c #90B9EF",
"&#	c #8CAE92",
"*#	c #9BB234",
"=#	c #91AC32",
"-#	c #83A53F",
";#	c #8BAD28",
">#	c #9CB827",
",#	c #A6BD2D",
"'#	c #99B535",
")#	c #84A669",
"!#	c #88AABD",
"~#	c #88ABBC",
"{#	c #87ABBC",
"]#	c #7DA0B6",
"^#	c #678AC8",
"/#	c #7298E4",
"(#	c #799EE7",
"_#	c #7BA1EA",
":#	c #7FA5ED",
"<#	c #84ABEF",
"[#	c #8BB2F1",
"}#	c #92B9F4",
"|#	c #98BFF6",
"1#	c #9CC2F7",
"2#	c #9DC3F7",
"3#	c #9AC1F7",
"4#	c #96BEF6",
"5#	c #90B9F5",
"6#	c #8BB4F3",
"7#	c #89B2F1",
"8#	c #89B0E2",
"9#	c #81A6AA",
"0#	c #7A9FAE",
"a#	c #769CC0",
"b#	c #89A869",
"c#	c #A9BE2E",
"d#	c #ACC02E",
"e#	c #97B23D",
"f#	c #83A681",
"g#	c #88ABBD",
"h#	c #86AABC",
"i#	c #87AABD",
"j#	c #86AABD",
"k#	c #83A7BB",
"l#	c #6789BD",
"m#	c #6E94DE",
"n#	c #7399E5",
"o#	c #769CE7",
"p#	c #799FE9",
"q#	c #7EA5EC",
"r#	c #82A9EE",
"s#	c #86AFEF",
"t#	c #8AB3F0",
"u#	c #8DB5F2",
"v#	c #8DB6F2",
"w#	c #8CB5F1",
"x#	c #8AB3F1",
"y#	c #88B0F0",
"z#	c #85ADEF",
"A#	c #82AAED",
"B#	c #81A7EA",
"C#	c #81A5E3",
"D#	c #7CA0E1",
"E#	c #779CE0",
"F#	c #88A695",
"G#	c #B0C136",
"H#	c #B0C231",
"I#	c #8FAC43",
"J#	c #82A696",
"K#	c #85AABD",
"L#	c #85AABC",
"M#	c #6D91B8",
"N#	c #698ED6",
"O#	c #7097E3",
"P#	c #7399E4",
"Q#	c #749BE5",
"R#	c #789EE7",
"S#	c #7BA2E9",
"T#	c #7FA6EB",
"U#	c #81A9EC",
"V#	c #83ABEE",
"W#	c #83ACEE",
"X#	c #83ABED",
"Y#	c #80A8EC",
"Z#	c #7DA5E9",
"`#	c #789FE5",
" $	c #7499E2",
".$	c #7095DF",
"+$	c #6D93DE",
"@$	c #7097DF",
"#$	c #96AF97",
"$$	c #B8C73A",
"%$	c #ACBF39",
"&$	c #85A65B",
"*$	c #82A7AD",
"=$	c #85A9BD",
"-$	c #85A9BC",
";$	c #84A9BC",
">$	c #84A9BD",
",$	c #84AABC",
"'$	c #83A9BD",
")$	c #769AB5",
"!$	c #6284C1",
"~$	c #6D94E0",
"{$	c #6F97E3",
"]$	c #7198E3",
"^$	c #739AE4",
"/$	c #769DE6",
"($	c #799FE7",
"_$	c #7AA1E7",
":$	c #789FE6",
"<$	c #779DE5",
"[$	c #739AE2",
"}$	c #6F94DD",
"|$	c #6C91DB",
"1$	c #6B90DA",
"2$	c #6B91DC",
"3$	c #6C93DE",
"4$	c #6F97E0",
"5$	c #A7BA7A",
"6$	c #BDC937",
"7$	c #9AB245",
"8$	c #80A484",
"9$	c #83A9BC",
"0$	c #82A9BD",
"a$	c #83A8BD",
"b$	c #6D90B9",
"c$	c #6387D0",
"d$	c #6C94E0",
"e$	c #6D95E1",
"f$	c #6E95E1",
"g$	c #6E95E0",
"h$	c #6F95DF",
"i$	c #6E95DF",
"j$	c #6D94DD",
"k$	c #6A92DB",
"l$	c #6990D9",
"m$	c #678DD7",
"n$	c #668CD6",
"o$	c #678ED8",
"p$	c #6A91DC",
"q$	c #6D95DF",
"r$	c #6E98E1",
"s$	c #779FD2",
"t$	c #B4C462",
"u$	c #ADBF46",
"v$	c #87A75F",
"w$	c #81A6A5",
"x$	c #82A8BC",
"y$	c #81A9BC",
"z$	c #81A9BD",
"A$	c #81A8BD",
"B$	c #82A8BD",
"C$	c #7A9EB8",
"D$	c #6285B9",
"E$	c #658CD5",
"F$	c #6B94E0",
"G$	c #6C95E0",
"H$	c #6C93DF",
"I$	c #6B93DE",
"J$	c #6A92DC",
"K$	c #6990DB",
"L$	c #678FDA",
"M$	c #688FDA",
"N$	c #6891DB",
"O$	c #6A94DD",
"P$	c #6C98E0",
"Q$	c #6E9BE2",
"R$	c #6E9CE2",
"S$	c #7CA4C9",
"T$	c #AFC05B",
"U$	c #91AD52",
"V$	c #7EA58B",
"W$	c #81A8BC",
"X$	c #80A8BD",
"Y$	c #80A7BD",
"Z$	c #7FA8BD",
"`$	c #7297B4",
" %	c #6387BE",
".%	c #658CD6",
"+%	c #6A94DF",
"@%	c #6B95E0",
"#%	c #6B95DF",
"$%	c #6B96DF",
"%%	c #6D9AE1",
"&%	c #6E9FE2",
"*%	c #6FA1E3",
"=%	c #6E9FE3",
"-%	c #6C9CE1",
";%	c #7AA1C3",
">%	c #94B059",
",%	c #7FA57F",
"'%	c #7EA6B8",
")%	c #80A8BC",
"!%	c #7EA8BD",
"~%	c #7EA7BD",
"{%	c #7EA8BC",
"]%	c #7096B5",
"^%	c #6185BA",
"/%	c #6086CD",
"(%	c #6993DE",
"_%	c #6995DF",
":%	c #6A97DF",
"<%	c #6B98E0",
"[%	c #6B9AE0",
"}%	c #6C9BE1",
"|%	c #6D9EE1",
"1%	c #6DA0E2",
"2%	c #6EA2E3",
"3%	c #6EA2E2",
"4%	c #6C9FE1",
"5%	c #6692D8",
"6%	c #678EB4",
"7%	c #7BA18D",
"8%	c #7FA5B3",
"9%	c #7FA7BD",
"0%	c #7DA7BC",
"a%	c #7DA7BD",
"b%	c #7EA7BC",
"c%	c #739BB6",
"d%	c #6388B5",
"e%	c #5D83C3",
"f%	c #628CD3",
"g%	c #6793DC",
"h%	c #6996DE",
"i%	c #6A99DF",
"j%	c #6B9BDF",
"k%	c #6B9CE0",
"l%	c #6A99DE",
"m%	c #6693D9",
"n%	c #5F87C8",
"o%	c #5C81B4",
"p%	c #6A90AD",
"q%	c #7BA5BA",
"r%	c #7BA7BD",
"s%	c #7CA7BD",
"t%	c #7CA7BC",
"u%	c #7BA6BB",
"v%	c #79A5B9",
"w%	c #79A3B9",
"x%	c #79A3B8",
"y%	c #759EB4",
"z%	c #658BAA",
"A%	c #5A7DAB",
"B%	c #587BB6",
"C%	c #5C81C3",
"D%	c #6089CD",
"E%	c #628DD2",
"F%	c #648FD4",
"G%	c #628BCF",
"H%	c #5D85C6",
"I%	c #587DBB",
"J%	c #587AAB",
"K%	c #5F81A4",
"L%	c #6C93AD",
"M%	c #769FB3",
"N%	c #77A1B6",
"O%	c #79A2B8",
"P%	c #7AA5BA",
"Q%	c #7BA5BC",
"R%	c #7CA6BD",
"S%	c #7AA7BD",
"T%	c #7BA6BD",
"U%	c #7AA5BC",
"V%	c #78A4BA",
"W%	c #78A2B8",
"X%	c #76A0B5",
"Y%	c #749EB3",
"Z%	c #739CB1",
"`%	c #6E97AB",
" &	c #6B92A6",
".&	c #668CA1",
"+&	c #5F839C",
"@&	c #5B7D9D",
"#&	c #587AA1",
"$&	c #5779A4",
"%&	c #5779A3",
"&&	c #5678A0",
"*&	c #57779A",
"=&	c #597A96",
"-&	c #61839A",
";&	c #678C9E",
">&	c #698EA2",
",&	c #6B91A6",
"'&	c #6F96AB",
")&	c #739BB1",
"!&	c #749EB4",
"~&	c #75A0B5",
"{&	c #78A3B8",
"]&	c #79A5BD",
"^&	c #7AA6BD",
"/&	c #79A6BD",
"(&	c #7AA5BD",
"_&	c #79A5BC",
":&	c #78A5BD",
"<&	c #78A5BC",
"[&	c #78A6BD",
"}&	c #77A5BD",
"|&	c #77A6BD",
"1&	c #78A6BC",
"2&	c #76A5BD",
"3&	c #77A4BD",
". + @ # . . . + + + + + + . + . . + + . + . . + . . + . . . . . ",
"+ @ @ + @ + $ + + + + + + + @ + @ + @ + + + @ + + + + + + + + + ",
"% % % & $ * % * * * * * = = % * = * * $ - * = $ * * $ * = * = $ ",
"; ; ; ; ; ; ; ; ; ; = > , ' ) ! ~ { ] ^ / ( ; ; ; = = _ : ; ; ; ",
"( < < [ ( < ( ( < } | 1 2 3 4 5 6 7 8 9 0 a b c ( ( < ( ( < < ( ",
"d e e e e e f g h i j k l m n o o p q r s t u v w e e e c e d e ",
"x x x y z x A B C D E F G H I J K L M N O P Q R S T z y x z x x ",
"U x V U V U W X Y Z `  ...+.@.#.$.%.&.*.=.-.;.>.,.'.).y x !.V U ",
"~.{.].^./.(._.:.<.[.}.|.1.2.3.4.5.6.7.8.9.0.a.b.c.d.e.f.{.~.^.~.",
"g././.g.h.i.j.k.l.m.n.o.p.q.r.s.t.u.v.w.x.y.z.A.B.C.D.E./.].F.G.",
"H.H.I.g.J.K.L.M.N.O.P.Q.R.S.T.U.V.W.X.Y.Z.`. +.+++@+#+$+H.I.I.H.",
"%+%+%+%+&+*+=+-+;+>+,+'+)+!+~+{+]+^+/+(+_+:+<+[+}+|+1+2+3+4+4+5+",
"6+7+7+8+9+0+a+b+c+d+e+f+g+h+i+j+k+l+m+n+o+p+q+r+s+t+u+v+w+x+6+6+",
"6+y+y+z+A+B+C+D+E+F+G+H+f+r.I+J+K+L+M+N+O+P+Q+R+S+T+U+V+W+6+y+y+",
"X+Y+X+Z+`+ @.@+@@@#@$@%@]+&@*@=@-@;@>@,@'@)@!@~@{@T+]@^@/@(@(@(@",
"_@:@_@<@[@}@|@1@2@3@4@5@6@7@7@8@9@0@a@b@c@d@e@f@g@h@i@j@k@l@_@m@",
"n@o@o@p@q@r@s@t@u@v@w@x@y@z@z@A@B@C@D@E@F@G@H@I@J@K@L@M@N@O@:@l@",
"P@Q@Q@R@S@T@U@V@W@X@Y@Z@`@ #.#+#@###$#%#&#*#=#-#;#>#,#'#)#P@Q@P@",
"!#~#{#]#^#/#(#_#:#<#[#}#|#1#2#3#4#5#6#7#8#9#0#a#b#c#d#e#f#!#!#g#",
"h#i#j#k#l#m#n#o#p#q#r#s#t#u#v#w#x#y#z#A#B#C#D#E#F#G#H#I#J#j#j#j#",
"K#K#L#L#M#N#O#P#Q#R#S#T#U#V#W#X#A#Y#Z#`# $.$+$@$#$$$%$&$*$=$-$j#",
";$>$,$'$)$!$~$O#{$]$^$/$($_$_$:$<$[$}$|$1$2$3$4$5$6$7$8$>$>$;$'$",
"9$'$'$0$a$b$c$d$e$f$g$g$h$i$j$k$l$m$n$o$p$q$r$s$t$u$v$w$'$a$a$x$",
"y$z$A$B$A$C$D$E$F$G$d$H$I$J$K$L$M$M$N$O$P$Q$R$S$T$U$V$B$y$A$z$W$",
"X$X$Y$X$X$Z$`$ %.%+%@%F$G$#%$%#%$%P$%%&%*%=%-%;%>%,%'%)%Z$Z$X$X$",
"!%~%Z$Z$!%~%{%]%^%/%(%_%:%<%[%}%|%1%2%3%4%[%5%6%7%8%Z${%9%~%~%~%",
"0%a%b%0%0%a%a%a%c%d%e%f%g%h%i%j%k%k%k%l%m%n%o%p%q%a%a%a%0%b%0%a%",
"r%s%t%s%s%u%v%w%x%y%z%A%B%C%D%E%F%G%H%I%J%K%L%M%N%O%w%P%Q%s%s%R%",
"S%T%T%U%V%W%X%Y%Z%`% &.&+&@&#&$&%&&&*&=&-&;&>&,&'&)&!&~&{&S%S%T%",
"]&^&/&/&^&/&^&/&^&^&(&/&/&]&^&/&_&/&]&/&/&/&]&]&]&/&/&^&^&/&]&]&",
":&<&[&[&[&:&:&:&[&[&:&:&:&}&:&|&[&[&|&:&:&[&:&1&:&[&}&<&[&:&[&:&",
"}&}&2&}&2&}&2&}&2&}&3&2&}&2&}&}&}&}&2&}&}&}&}&2&}&}&}&2&}&2&2&}&"};
