/* XPM */
static char * uvlayout_stop_xpm[] = {
"32 32 309 2",
"  	c None",
". 	c #A9A9A8",
"+ 	c #A4A4A4",
"@ 	c #A5A5AA",
"# 	c #9999AB",
"$ 	c #8F9199",
"% 	c #0A0A12",
"& 	c #18182B",
"* 	c #1D262B",
"= 	c #333456",
"- 	c #8888C3",
"; 	c #A8A9A7",
"> 	c #96A196",
", 	c #78AC78",
"' 	c #698F65",
") 	c #50508E",
"! 	c #7575D1",
"~ 	c #4D4E8A",
"{ 	c #5E5EA8",
"] 	c #5A6499",
"^ 	c #666CAE",
"/ 	c #6D70B0",
"( 	c #B1B188",
"_ 	c #9B9B8A",
": 	c #5A9465",
"< 	c #6DC36D",
"[ 	c #69BC69",
"} 	c #66A56B",
"| 	c #4A4A82",
"1 	c #5F8484",
"2 	c #72CB72",
"3 	c #498249",
"4 	c #539453",
"5 	c #659A65",
"6 	c #949393",
"7 	c #7C867B",
"8 	c #6E706E",
"9 	c #39653A",
"0 	c #66B264",
"a 	c #97715F",
"b 	c #6B5143",
"c 	c #70C770",
"d 	c #2D502D",
"e 	c #010201",
"f 	c #060B06",
"g 	c #1D341D",
"h 	c #6868BB",
"i 	c #7373CE",
"j 	c #7B7BA6",
"k 	c #6B7D6B",
"l 	c #0A150A",
"m 	c #0B0B05",
"n 	c #86855E",
"o 	c #C36D6D",
"p 	c #B86767",
"q 	c #569956",
"r 	c #152715",
"s 	c #448344",
"t 	c #4D8A4D",
"u 	c #5CA95C",
"v 	c #575B98",
"w 	c #5C5CA3",
"x 	c #464656",
"y 	c #9A9C99",
"z 	c #518D50",
"A 	c #93665A",
"B 	c #935353",
"C 	c #A55C5C",
"D 	c #D57878",
"E 	c #4D583C",
"F 	c #213C21",
"G 	c #3C6B3C",
"H 	c #3C6145",
"I 	c #447944",
"J 	c #05060A",
"K 	c #8B8B93",
"L 	c #577956",
"M 	c #62A15D",
"N 	c #8E5C55",
"O 	c #1C1010",
"P 	c #8A4D4D",
"Q 	c #69463D",
"R 	c #414172",
"S 	c #131322",
"T 	c #282847",
"U 	c #47477F",
"V 	c #889188",
"W 	c #599D5A",
"X 	c #321C1C",
"Y 	c #824949",
"Z 	c #140B0B",
"` 	c #A85E5E",
" .	c #754241",
"..	c #4B7F52",
"+.	c #284728",
"@.	c #3A3A64",
"#.	c #1D1D34",
"$.	c #3D3D6C",
"%.	c #345937",
"&.	c #766349",
"*.	c #BD6A6A",
"=.	c #452828",
"-.	c #9D5858",
";.	c #0E1B0E",
">.	c #161629",
",.	c #6161AC",
"'.	c #AAAA98",
").	c #1B570F",
"!.	c #5D7834",
"~.	c #35661E",
"{.	c #667A39",
"].	c #022501",
"^.	c #291A19",
"/.	c #633838",
"(.	c #A8A87E",
"_.	c #434243",
":.	c #856A4A",
"<.	c #262616",
"[.	c #68A440",
"}.	c #658B38",
"|.	c #7B4945",
"1.	c #593431",
"2.	c #417441",
"3.	c #002D00",
"4.	c #0E0E1B",
"5.	c #282846",
"6.	c #56569A",
"7.	c #B4B465",
"8.	c #282322",
"9.	c #3C2924",
"0.	c #9E9E58",
"a.	c #2F2F1B",
"b.	c #4A4A2A",
"c.	c #B7B769",
"d.	c #80AE48",
"e.	c #5B8C38",
"f.	c #6E543D",
"g.	c #828283",
"h.	c #656855",
"i.	c #003B00",
"j.	c #363661",
"k.	c #535393",
"l.	c #5B5B8C",
"m.	c #221414",
"n.	c #A6A65D",
"o.	c #939352",
"p.	c #ADAD60",
"q.	c #B2AF64",
"r.	c #3A6563",
"s.	c #506B47",
"t.	c #465B69",
"u.	c #646577",
"v.	c #A9A98E",
"w.	c #9A9A56",
"x.	c #787867",
"y.	c #70787C",
"z.	c #4B4B4D",
"A.	c #51647B",
"B.	c #969682",
"C.	c #6D6C6C",
"D.	c #0F0808",
"E.	c #462827",
"F.	c #4E2C2B",
"G.	c #787843",
"H.	c #676766",
"I.	c #034203",
"J.	c #192C19",
"K.	c #59599C",
"L.	c #696982",
"M.	c #959694",
"N.	c #525151",
"O.	c #FF8080",
"P.	c #434538",
"Q.	c #4F4F8A",
"R.	c #565699",
"S.	c #494983",
"T.	c #4B4B86",
"U.	c #393965",
"V.	c #72736F",
"W.	c #517D65",
"X.	c #70706F",
"Y.	c #3E3E70",
"Z.	c #030407",
"`.	c #0C7007",
" +	c #1E6215",
".+	c #409636",
"++	c #44A143",
"@+	c #556785",
"#+	c #78788C",
"$+	c #838383",
"%+	c #120B0B",
"&+	c #272616",
"*+	c #3D3D22",
"=+	c #1F1F38",
"-+	c #07070F",
";+	c #333359",
">+	c #707070",
",+	c #323328",
"'+	c #55562F",
")+	c #8C8C4E",
"!+	c #808747",
"~+	c #4B722B",
"{+	c #11421F",
"]+	c #2D6051",
"^+	c #3C4266",
"/+	c #626271",
"(+	c #969695",
"_+	c #201F12",
":+	c #233F23",
"<+	c #614A36",
"[+	c #5A5A32",
"}+	c #323258",
"|+	c #131324",
"1+	c #5F6066",
"2+	c #234414",
"3+	c #0B0B06",
"4+	c #1F1F11",
"5+	c #3A3B24",
"6+	c #494929",
"7+	c #393931",
"8+	c #24243F",
"9+	c #06060C",
"0+	c #282848",
"a+	c #7A4444",
"b+	c #6A4A40",
"c+	c #84844A",
"d+	c #5E5E5D",
"e+	c #2B2B4C",
"f+	c #0C0C17",
"g+	c #2C2C4F",
"h+	c #233B21",
"i+	c #28291C",
"j+	c #674239",
"k+	c #16160C",
"l+	c #23233F",
"m+	c #45457C",
"n+	c #3E6E3E",
"o+	c #050905",
"p+	c #101C10",
"q+	c #354D2E",
"r+	c #7E4646",
"s+	c #424226",
"t+	c #414125",
"u+	c #535348",
"v+	c #4C4C4A",
"w+	c #0E0E07",
"x+	c #161616",
"y+	c #424277",
"z+	c #404072",
"A+	c #488248",
"B+	c #447642",
"C+	c #365E35",
"D+	c #8E5050",
"E+	c #503830",
"F+	c #231F1E",
"G+	c #262615",
"H+	c #393966",
"I+	c #3B3B68",
"J+	c #366036",
"K+	c #192E19",
"L+	c #3A683A",
"M+	c #464C35",
"N+	c #864B4B",
"O+	c #0D0707",
"P+	c #7F7777",
"Q+	c #4B4B4B",
"R+	c #000000",
"S+	c #2C2C19",
"T+	c #2A2B4C",
"U+	c #305630",
"V+	c #070F07",
"W+	c #122112",
"X+	c #5D4138",
"Y+	c #1C1B1B",
"Z+	c #1F1F12",
"`+	c #292917",
" @	c #396639",
".@	c #703E3E",
"+@	c #373636",
"@@	c #090904",
"#@	c #1D1D11",
"$@	c #2E4B35",
"%@	c #447A44",
"&@	c #223B24",
"*@	c #3E6D3E",
"=@	c #3F4A38",
"-@	c #271616",
";@	c #383838",
">@	c #6B6B6B",
",@	c #040508",
"'@	c #0A0A15",
")@	c #2B4135",
"!@	c #355F35",
"~@	c #101E10",
"{@	c #000100",
"]@	c #091209",
"^@	c #2E532E",
"/@	c #35563D",
"(@	c #693D3B",
"_@	c #1A1716",
":@	c #7B7A7A",
"<@	c #2A2A2B",
"[@	c #232437",
"}@	c #366136",
"|@	c #717165",
"1@	c #5B5B5D",
"2@	c #1A1D22",
"3@	c #0C1110",
"4@	c #706B6B",
". . . . . . . . . . . . . . + + @ . . . . . . . . . . . . . . . ",
". . . . . . . . . . . . # $ % % & * = - @ . . . . . . . . . . . ",
". . . . . . . . ; > , ' ) ! ~ ~ { ] ] ^ / ( _ ; . . . . . . . . ",
". . . . . . . . > : < [ } | 1 } 2 3 4 2 2 5 6 7 + . . . . . . . ",
". . . . . . . 8 9 [ [ 0 a b c 2 d e f g < 0 h i j . . . . . . . ",
". . . . . . k l m 4 n o o p q [ r d s e t u v h w x @ @ . . . . ",
". . . . ; y 3 q z A B C D o E 0 F G H f I t | w = J K @ . . . . ",
". . . ; ; L 4 M N O e e P o Q 4 t G l r 9 9 R ~ S T U # . . . . ",
". . . . V I W A X X Y Z X `  ...G +.l J +.+.@.S @.#.$.j . . . . ",
". . ; ; %.t &.C e P *.=.O -. .9 +.r f e ;.>.#.e >.% $.,.'.. . . ",
". . . ' ).!.~.{.].Q o ^.=.C /.+.e e e e e % >.#.>.e #.{ (.. . . ",
". . . _.e :.<.e {.[.}.l |.B 1.g 2.} s 3.e J 4.5.#.% ) 6.7.. . . ",
". . . 8.9.&.0.a.b.c.c.d.e.f.=.g.. . . h.i.e ;.* 5.j.k.l.7.'.@ . ",
". . . m. .f.n.o.p.q.7.n l.r.s.. . . . @ r 3.f l d H t.u.p.v.. . ",
". . 6 O  .Q w.7.n.7.x.,.6.U y.. . . . . z.i.e e 9 3 q A.u.B.. . ",
". . C.D.E.F.G.o.w.u.,.w | 4.g.. . . . . H.I.f J.I z 4 w K.L.. . ",
"; M.N.O.O.O.O.P.Q.R.S.T.U.e K . . . . . V.i.e 9 t 4 W.,.#.z.. . ",
"M.X.O.O.O.O.O.O.$.Y.O.O.Z.Z 1 . . . . . L `. +.+++u @+,.T #+. . ",
"$+O.O.%+&+*+O.O.O.=+O.O.-+;+x M.$+>+>+$+,+'+1.)+!+~+{+]+^+/+(+. ",
">+O.O._+:+<+[+O.O.O.O.O.O.}+|+1+O.O.O.O.2+Y Q )+O.O.3+O.O.O.$+. ",
"$+O.O.O.4+5+6+7+8+O.O.O.O.9+0+O.O.O.O.O.O.a+b+c+O.O.O.O.O.O.d+(+",
"(+>+O.O.O.O.O.*+e+f+O.O.g+Y.O.O.O.h+i+O.O.O.j+)+O.O.3+k+O.O.O.$+",
". (+>+O.O.O.O.O.O.l+O.O.$.m+O.O.n+o+:+p+O.O.q+r+O.O.s+t+u+O.O.>+",
"(+$+>+>+v+w+O.O.O.x+O.O.y+z+O.O.A+;.W B+O.O.C+D+O.O.E+&.X.O.O.>+",
"$+O.O.$+. F+k+O.O.G+O.O.H+I+O.O.J+K+K+L+O.O.M+N+O.O.O+P+d+O.O.>+",
"$+O.O.Q+>+N.R+O.O.S+O.O.T+U+O.O.O.V+W+O.O.O.X+r+O.O.Y+d+O.O.O.$+",
"(+>+O.O.O.O.O.O.Z+`+O.O.O.C+ @O.O.O.O.O.O. @Y .@O.O.O.O.O.O.d+(+",
". (+>+O.O.O.O.+@@@#@O.O.O.$@%@&@O.O.O.O.*@=@B -@O.O.;@O.O.O.$+. ",
". . (+$+>+>+$+(+>@,@'@S l+0+)@!@~@{@]@^@/@(@9._@O.O.d+$+>+$+(+. ",
". . . . . . . . . :@<@% e J & [@)@%.}@d 9.=.z.|@O.O.>+. . . . . ",
". . . . . . . . . . . 6 1@2@e e 4.S 3@<@4@@ . $+O.O.$+. . . . . ",
". . . . . . . . . . . . . ; V #+6 6 '.; . . . (+$+$+(+. . . . . "};
