/* XPM */
static char * uvlayout_info_xpm[] = {
"32 32 299 2",
"  	c None",
". 	c #A9A9A8",
"+ 	c #A4A4A4",
"@ 	c #A5A5AA",
"# 	c #9999AB",
"$ 	c #8F9199",
"% 	c #0A0A12",
"& 	c #18182B",
"* 	c #1D262B",
"= 	c #333456",
"- 	c #8888C3",
"; 	c #A8A9A7",
"> 	c #96A196",
", 	c #78AC78",
"' 	c #698F65",
") 	c #50508E",
"! 	c #7575D1",
"~ 	c #4D4E8A",
"{ 	c #5E5EA8",
"] 	c #5A6499",
"^ 	c #666CAE",
"/ 	c #6D70B0",
"( 	c #B1B188",
"_ 	c #9B9B8A",
": 	c #5A9465",
"< 	c #6DC36D",
"[ 	c #69BC69",
"} 	c #66A56B",
"| 	c #4A4A82",
"1 	c #5F8484",
"2 	c #72CB72",
"3 	c #498249",
"4 	c #539453",
"5 	c #659A65",
"6 	c #949393",
"7 	c #7C867B",
"8 	c #6E706E",
"9 	c #39653A",
"0 	c #66B264",
"a 	c #97715F",
"b 	c #6B5143",
"c 	c #70C770",
"d 	c #2D502D",
"e 	c #010201",
"f 	c #060B06",
"g 	c #1D341D",
"h 	c #6868BB",
"i 	c #7373CE",
"j 	c #7B7BA6",
"k 	c #6B7D6B",
"l 	c #0A150A",
"m 	c #0B0B05",
"n 	c #86855E",
"o 	c #C36D6D",
"p 	c #B86767",
"q 	c #569956",
"r 	c #152715",
"s 	c #448344",
"t 	c #4D8A4D",
"u 	c #5CA95C",
"v 	c #575B98",
"w 	c #5C5CA3",
"x 	c #464656",
"y 	c #9A9C99",
"z 	c #518D50",
"A 	c #93665A",
"B 	c #935353",
"C 	c #A55C5C",
"D 	c #D57878",
"E 	c #4D583C",
"F 	c #213C21",
"G 	c #3C6B3C",
"H 	c #3C6145",
"I 	c #447944",
"J 	c #05060A",
"K 	c #8B8B93",
"L 	c #577956",
"M 	c #62A15D",
"N 	c #8E5C55",
"O 	c #1C1010",
"P 	c #8A4D4D",
"Q 	c #69463D",
"R 	c #414172",
"S 	c #131322",
"T 	c #282847",
"U 	c #47477F",
"V 	c #889188",
"W 	c #599D5A",
"X 	c #321C1C",
"Y 	c #824949",
"Z 	c #140B0B",
"` 	c #A85E5E",
" .	c #754241",
"..	c #4B7F52",
"+.	c #284728",
"@.	c #3A3A64",
"#.	c #1D1D34",
"$.	c #3D3D6C",
"%.	c #345937",
"&.	c #766349",
"*.	c #BD6A6A",
"=.	c #452828",
"-.	c #9D5858",
";.	c #0E1B0E",
">.	c #161629",
",.	c #6161AC",
"'.	c #AAAA98",
").	c #1B570F",
"!.	c #5D7834",
"~.	c #35661E",
"{.	c #667A39",
"].	c #022501",
"^.	c #291A19",
"/.	c #633838",
"(.	c #A8A87E",
"_.	c #434243",
":.	c #856A4A",
"<.	c #262616",
"[.	c #68A440",
"}.	c #658B38",
"|.	c #7B4945",
"1.	c #593431",
"2.	c #417441",
"3.	c #002D00",
"4.	c #0E0E1B",
"5.	c #282846",
"6.	c #56569A",
"7.	c #B4B465",
"8.	c #282322",
"9.	c #3C2924",
"0.	c #9E9E58",
"a.	c #2F2F1B",
"b.	c #4A4A2A",
"c.	c #B7B769",
"d.	c #80AE48",
"e.	c #5B8C38",
"f.	c #6E543D",
"g.	c #828283",
"h.	c #656855",
"i.	c #003B00",
"j.	c #363661",
"k.	c #535393",
"l.	c #5B5B8C",
"m.	c #221414",
"n.	c #A6A65D",
"o.	c #939352",
"p.	c #ADAD60",
"q.	c #B2AF64",
"r.	c #3A6563",
"s.	c #506B47",
"t.	c #465B69",
"u.	c #646577",
"v.	c #A9A98E",
"w.	c #9A9A56",
"x.	c #787867",
"y.	c #70787C",
"z.	c #4B4B4D",
"A.	c #51647B",
"B.	c #969682",
"C.	c #6D6C6C",
"D.	c #0F0808",
"E.	c #512F2E",
"F.	c #683A39",
"G.	c #969695",
"H.	c #838383",
"I.	c #676766",
"J.	c #034203",
"K.	c #192C19",
"L.	c #59599C",
"M.	c #696982",
"N.	c #5F5F5F",
"O.	c #FFFFFF",
"P.	c #653838",
"Q.	c #817D49",
"R.	c #707070",
"S.	c #72736F",
"T.	c #517D65",
"U.	c #626262",
"V.	c #422525",
"W.	c #6464B3",
"X.	c #0C7007",
"Y.	c #1E6215",
"Z.	c #409636",
"`.	c #44A143",
" +	c #556785",
".+	c #78788C",
"++	c #494929",
"@+	c #616137",
"#+	c #404072",
"$+	c #494983",
"%+	c #393965",
"&+	c #030406",
"*+	c #0A0A15",
"=+	c #333359",
"-+	c #3E3E4C",
";+	c #5D5E5C",
">+	c #4B4B4B",
",+	c #393A2D",
"'+	c #4B4C29",
")+	c #452826",
"!+	c #69693A",
"~+	c #6E743D",
"{+	c #4B722B",
"]+	c #134B23",
"^+	c #3A7C68",
"/+	c #7E7E91",
"(+	c #493828",
"_+	c #69693B",
":+	c #2B2B4C",
"<+	c #585956",
"[+	c #2F5A1A",
"}+	c #623737",
"|+	c #111109",
"1+	c #565830",
"2+	c #3A3B24",
"3+	c #21213C",
"4+	c #33421F",
"5+	c #6E3D3D",
"6+	c #6A6A3F",
"7+	c #070703",
"8+	c #252514",
"9+	c #0C0C17",
"0+	c #0C0C16",
"a+	c #11111F",
"b+	c #393968",
"c+	c #34454D",
"d+	c #28291C",
"e+	c #644B3F",
"f+	c #757541",
"g+	c #70703E",
"h+	c #4E5142",
"i+	c #040704",
"j+	c #000100",
"k+	c #35355E",
"l+	c #424277",
"m+	c #45457C",
"n+	c #3C6243",
"o+	c #1A2F1A",
"p+	c #132213",
"q+	c #2C4026",
"r+	c #9B8657",
"s+	c #646438",
"t+	c #646456",
"u+	c #1A1A0E",
"v+	c #2C2C2C",
"w+	c #373762",
"x+	c #384458",
"y+	c #488248",
"z+	c #3B683C",
"A+	c #447642",
"B+	c #365E35",
"C+	c #5C3333",
"D+	c #70706F",
"E+	c #1A1716",
"F+	c #4C4C2B",
"G+	c #393966",
"H+	c #467D46",
"I+	c #3B402C",
"J+	c #B26464",
"K+	c #4F2E2B",
"L+	c #525151",
"M+	c #424226",
"N+	c #636339",
"O+	c #407340",
"P+	c #162816",
"Q+	c #497F49",
"R+	c #693B3B",
"S+	c #5B3333",
"T+	c #31311C",
"U+	c #303222",
"V+	c #396639",
"W+	c #305630",
"X+	c #569A56",
"Y+	c #1D1D11",
"Z+	c #2A2A2B",
"`+	c #272843",
" @	c #28452A",
".@	c #1F371F",
"+@	c #539153",
"@@	c #2F382A",
"#@	c #535353",
"$@	c #040508",
"%@	c #19192E",
"&@	c #23233F",
"*@	c #26392F",
"=@	c #355F35",
"-@	c #101E10",
";@	c #0C180C",
">@	c #5D3634",
",@	c #2E1F1C",
"'@	c #666866",
")@	c #7B7A7A",
"!@	c #232437",
"~@	c #2B4135",
"{@	c #366136",
"]@	c #5B5B5D",
"^@	c #1A1D22",
"/@	c #0C1110",
"(@	c #706B6B",
". . . . . . . . . . . . . . + + @ . . . . . . . . . . . . . . . ",
". . . . . . . . . . . . # $ % % & * = - @ . . . . . . . . . . . ",
". . . . . . . . ; > , ' ) ! ~ ~ { ] ] ^ / ( _ ; . . . . . . . . ",
". . . . . . . . > : < [ } | 1 } 2 3 4 2 2 5 6 7 + . . . . . . . ",
". . . . . . . 8 9 [ [ 0 a b c 2 d e f g < 0 h i j . . . . . . . ",
". . . . . . k l m 4 n o o p q [ r d s e t u v h w x @ @ . . . . ",
". . . . ; y 3 q z A B C D o E 0 F G H f I t | w = J K @ . . . . ",
". . . ; ; L 4 M N O e e P o Q 4 t G l r 9 9 R ~ S T U # . . . . ",
". . . . V I W A X X Y Z X `  ...G +.l J +.+.@.S @.#.$.j . . . . ",
". . ; ; %.t &.C e P *.=.O -. .9 +.r f e ;.>.#.e >.% $.,.'.. . . ",
". . . ' ).!.~.{.].Q o ^.=.C /.+.e e e e e % >.#.>.e #.{ (.. . . ",
". . . _.e :.<.e {.[.}.l |.B 1.g 2.} s 3.e J 4.5.#.% ) 6.7.. . . ",
". . . 8.9.&.0.a.b.c.c.d.e.f.=.g.. . . h.i.e ;.* 5.j.k.l.7.'.@ . ",
". . . m. .f.n.o.p.q.7.n l.r.s.. . . . @ r 3.f l d H t.u.p.v.. . ",
". . 6 O  .Q w.7.n.7.x.,.6.U y.. . . . . z.i.e e 9 3 q A.u.B.. . ",
". . C.D.E.F.w.n.w.u.,.w | 4.g.. G.H.H.G.I.J.f K.I z 4 w L.M.. . ",
"; ; N.O.O.P.Q.h.L.,.{ ,.R e K G.R.O.O.H.S.i.e 9 t 4 T.,.#.z.. . ",
"; ; U.O.O.V._.L.w { W.~ J Z 1 H.O.O.O.H.L X.Y.Z.`.u  +,.T .+. . ",
". . R.O.O.++@+#+U $+%+&+*+=+-+;+O.O.>+H.,+'+)+!+~+{+]+^+] /+. . ",
". . R.O.O.(+_+O.O.& O.O.O.:+4.O.O.O.O.<+[+}+O.O.O.O.|+1+[.7 . . ",
". . R.O.O.2+++O.O.O.O.O.O.O.3+O.O.O.O.4+5+O.O.O.O.O.O.!+6++ . . ",
". . R.O.O.7+8+O.O.9+0+a+O.O.b+c+O.O.d+e+O.O.O.f+g+O.O.O.h+. . . ",
". . R.O.O.i+j+O.O.k+) l+O.O.m+n+O.O.o+p+O.O.q+` r+s+O.O.t+. . . ",
". . R.O.O.|+u+O.O.v+w w+O.O.x+y+O.O.z+A+O.O.B+D C C+O.O.D+. . . ",
". . R.O.O.E+u+O.O.F+@.G+O.O.n+H+O.O.p+H+O.O.I+J+K+j+O.O.R.. . . ",
". . R.O.O.L+j+O.O.M+N+:+O.O.O+O+O.O.P+Q+O.O.O.R+S+O.O.O.H.. . . ",
". . R.O.O.R.v+O.O.T+N+U+O.O.V+W+O.O.A+X+H+O.O.O.O.O.O.R.G.. . . ",
". . H.O.O.H.H.O.O.Y+Z+`+O.O.G  @O.O..@K.+@@@O.O.O.O.R.G.. . . . ",
". . G.H.H.G.G.H.#@$@4.%@&@&@*@=@-@j+;@G H >@,@E+'@H.G.. . . . . ",
". . . . . . . . . )@Z+% e J & !@~@%.{@d 9.=.z.'.. . . . . . . . ",
". . . . . . . . . . . 6 ]@^@e e 4.S /@Z+(@@ . . . . . . . . . . ",
". . . . . . . . . . . . . ; V .+6 6 '.; . . . . . . . . . . . . "};
