/* XPM */
static char * uvlayout_run_xpm[] = {
"32 32 306 2",
"  	c None",
". 	c #A9A9A8",
"+ 	c #A4A4A4",
"@ 	c #A5A5AA",
"# 	c #9999AB",
"$ 	c #8F9199",
"% 	c #0A0A12",
"& 	c #18182B",
"* 	c #1D262B",
"= 	c #333456",
"- 	c #8888C3",
"; 	c #A8A9A7",
"> 	c #96A196",
", 	c #78AC78",
"' 	c #698F65",
") 	c #50508E",
"! 	c #7575D1",
"~ 	c #4D4E8A",
"{ 	c #5E5EA8",
"] 	c #5A6499",
"^ 	c #666CAE",
"/ 	c #6D70B0",
"( 	c #B1B188",
"_ 	c #9B9B8A",
": 	c #5A9465",
"< 	c #6DC36D",
"[ 	c #69BC69",
"} 	c #66A56B",
"| 	c #4A4A82",
"1 	c #5F8484",
"2 	c #72CB72",
"3 	c #498249",
"4 	c #539453",
"5 	c #659A65",
"6 	c #949393",
"7 	c #7C867B",
"8 	c #6E706E",
"9 	c #39653A",
"0 	c #66B264",
"a 	c #97715F",
"b 	c #6B5143",
"c 	c #70C770",
"d 	c #2D502D",
"e 	c #010201",
"f 	c #060B06",
"g 	c #1D341D",
"h 	c #6868BB",
"i 	c #7373CE",
"j 	c #7B7BA6",
"k 	c #6B7D6B",
"l 	c #0A150A",
"m 	c #0B0B05",
"n 	c #86855E",
"o 	c #C36D6D",
"p 	c #B86767",
"q 	c #569956",
"r 	c #152715",
"s 	c #448344",
"t 	c #4D8A4D",
"u 	c #5CA95C",
"v 	c #575B98",
"w 	c #5C5CA3",
"x 	c #464656",
"y 	c #9A9C99",
"z 	c #518D50",
"A 	c #93665A",
"B 	c #935353",
"C 	c #A55C5C",
"D 	c #D57878",
"E 	c #4D583C",
"F 	c #213C21",
"G 	c #3C6B3C",
"H 	c #3C6145",
"I 	c #447944",
"J 	c #05060A",
"K 	c #8B8B93",
"L 	c #577956",
"M 	c #62A15D",
"N 	c #8E5C55",
"O 	c #1C1010",
"P 	c #8A4D4D",
"Q 	c #69463D",
"R 	c #414172",
"S 	c #131322",
"T 	c #282847",
"U 	c #47477F",
"V 	c #889188",
"W 	c #599D5A",
"X 	c #321C1C",
"Y 	c #824949",
"Z 	c #140B0B",
"` 	c #A85E5E",
" .	c #754241",
"..	c #4B7F52",
"+.	c #284728",
"@.	c #3A3A64",
"#.	c #1D1D34",
"$.	c #3D3D6C",
"%.	c #345937",
"&.	c #766349",
"*.	c #BD6A6A",
"=.	c #452828",
"-.	c #9D5858",
";.	c #0E1B0E",
">.	c #161629",
",.	c #6161AC",
"'.	c #AAAA98",
").	c #1B570F",
"!.	c #5D7834",
"~.	c #35661E",
"{.	c #667A39",
"].	c #022501",
"^.	c #291A19",
"/.	c #633838",
"(.	c #A8A87E",
"_.	c #434243",
":.	c #856A4A",
"<.	c #262616",
"[.	c #68A440",
"}.	c #658B38",
"|.	c #7B4945",
"1.	c #593431",
"2.	c #417441",
"3.	c #002D00",
"4.	c #0E0E1B",
"5.	c #282846",
"6.	c #56569A",
"7.	c #B4B465",
"8.	c #282322",
"9.	c #3C2924",
"0.	c #9E9E58",
"a.	c #2F2F1B",
"b.	c #4A4A2A",
"c.	c #B7B769",
"d.	c #80AE48",
"e.	c #5B8C38",
"f.	c #6E543D",
"g.	c #828283",
"h.	c #656855",
"i.	c #003B00",
"j.	c #363661",
"k.	c #535393",
"l.	c #5B5B8C",
"m.	c #221414",
"n.	c #A6A65D",
"o.	c #939352",
"p.	c #ADAD60",
"q.	c #B2AF64",
"r.	c #3A6563",
"s.	c #506B47",
"t.	c #465B69",
"u.	c #646577",
"v.	c #A9A98E",
"w.	c #9A9A56",
"x.	c #787867",
"y.	c #70787C",
"z.	c #4B4B4D",
"A.	c #51647B",
"B.	c #969682",
"C.	c #6D6C6C",
"D.	c #0F0808",
"E.	c #462827",
"F.	c #4E2C2B",
"G.	c #666639",
"H.	c #6E6E3E",
"I.	c #4E4E5C",
"J.	c #565699",
"K.	c #676766",
"L.	c #034203",
"M.	c #192C19",
"N.	c #59599C",
"O.	c #696982",
"P.	c #5F5F5F",
"Q.	c #7EFF8A",
"R.	c #3E3E70",
"S.	c #72736F",
"T.	c #517D65",
"U.	c #626262",
"V.	c #3C3C6B",
"W.	c #0C7007",
"X.	c #1E6215",
"Y.	c #409636",
"Z.	c #44A143",
"`.	c #556785",
" +	c #78788C",
".+	c #707070",
"++	c #31311B",
"@+	c #494929",
"#+	c #373762",
"$+	c #292948",
"%+	c #030406",
"&+	c #0C0C18",
"*+	c #2D2D4E",
"=+	c #363643",
"-+	c #959694",
";+	c #969695",
">+	c #838383",
",+	c #323328",
"'+	c #4B4C29",
")+	c #452826",
"!+	c #7B7B44",
"~+	c #808747",
"{+	c #4B722B",
"]+	c #0E381A",
"^+	c #2D6051",
"/+	c #505988",
"(+	c #7E7E91",
"_+	c #493828",
":+	c #87874C",
"<+	c #45456C",
"[+	c #06060C",
"}+	c #404072",
"|+	c #6F7177",
"1+	c #294F17",
"2+	c #724040",
"3+	c #51512E",
"4+	c #456D2A",
"5+	c #6E776D",
"6+	c #262718",
"7+	c #393931",
"8+	c #1D1D32",
"9+	c #0E0E1A",
"0+	c #384458",
"a+	c #507250",
"b+	c #6E3D3D",
"c+	c #7A4444",
"d+	c #7F7F7F",
"e+	c #23233F",
"f+	c #35355E",
"g+	c #3E525C",
"h+	c #2A4628",
"i+	c #6C4640",
"j+	c #7E4646",
"k+	c #5A5A32",
"l+	c #404224",
"m+	c #0B0B06",
"n+	c #2C2C4F",
"o+	c #59599F",
"p+	c #3C6243",
"q+	c #040704",
"r+	c #365E35",
"s+	c #4A844A",
"t+	c #746441",
"u+	c #424226",
"v+	c #1A1A0E",
"w+	c #000100",
"x+	c #1D1D10",
"y+	c #424277",
"z+	c #488248",
"A+	c #091209",
"B+	c #4F8D4F",
"C+	c #503830",
"D+	c #1A1716",
"E+	c #282816",
"F+	c #0D0D07",
"G+	c #393966",
"H+	c #467D46",
"I+	c #61AD61",
"J+	c #132213",
"K+	c #4C874C",
"L+	c #3B2220",
"M+	c #0D0707",
"N+	c #525151",
"O+	c #2B2B4C",
"P+	c #33345C",
"Q+	c #2B4D2B",
"R+	c #0E1A0E",
"S+	c #060C06",
"T+	c #613636",
"U+	c #2A2828",
"V+	c #1F1F12",
"W+	c #303222",
"X+	c #28452A",
"Y+	c #396639",
"Z+	c #666866",
"`+	c #535252",
" @	c #080803",
".@	c #272843",
"+@	c #2D2E4C",
"@@	c #28402E",
"#@	c #142314",
"$@	c #497F49",
"%@	c #374131",
"&@	c #1F1413",
"*@	c #030407",
"=@	c #0A0A15",
"-@	c #19192E",
";@	c #2E2E51",
">@	c #282848",
",@	c #213229",
"'@	c #101E10",
")@	c #2E532E",
"!@	c #35563D",
"~@	c #5D3634",
"{@	c #2E1F1C",
"]@	c #1F1B1A",
"^@	c #898A88",
"/@	c #7B7A7A",
"(@	c #2A2A2B",
"_@	c #232437",
":@	c #2B4135",
"<@	c #366136",
"[@	c #5B5B5D",
"}@	c #1A1D22",
"|@	c #0C1110",
"1@	c #706B6B",
". . . . . . . . . . . . . . + + @ . . . . . . . . . . . . . . . ",
". . . . . . . . . . . . # $ % % & * = - @ . . . . . . . . . . . ",
". . . . . . . . ; > , ' ) ! ~ ~ { ] ] ^ / ( _ ; . . . . . . . . ",
". . . . . . . . > : < [ } | 1 } 2 3 4 2 2 5 6 7 + . . . . . . . ",
". . . . . . . 8 9 [ [ 0 a b c 2 d e f g < 0 h i j . . . . . . . ",
". . . . . . k l m 4 n o o p q [ r d s e t u v h w x @ @ . . . . ",
". . . . ; y 3 q z A B C D o E 0 F G H f I t | w = J K @ . . . . ",
". . . ; ; L 4 M N O e e P o Q 4 t G l r 9 9 R ~ S T U # . . . . ",
". . . . V I W A X X Y Z X `  ...G +.l J +.+.@.S @.#.$.j . . . . ",
". . ; ; %.t &.C e P *.=.O -. .9 +.r f e ;.>.#.e >.% $.,.'.. . . ",
". . . ' ).!.~.{.].Q o ^.=.C /.+.e e e e e % >.#.>.e #.{ (.. . . ",
". . . _.e :.<.e {.[.}.l |.B 1.g 2.} s 3.e J 4.5.#.% ) 6.7.. . . ",
". . . 8.9.&.0.a.b.c.c.d.e.f.=.g.. . . h.i.e ;.* 5.j.k.l.7.'.@ . ",
". . . m. .f.n.o.p.q.7.n l.r.s.. . . . @ r 3.f l d H t.u.p.v.. . ",
". . 6 O  .Q w.7.n.7.x.,.6.U y.. . . . . z.i.e e 9 3 q A.u.B.. . ",
". . C.D.E.F.G.H.G.I.J.w | 4.g.. . . . . K.L.f M.I z 4 w N.O.. . ",
"; ; P.Q.Q.Q.Q.Q.Q.Q.R.J.R e K . . . . . S.i.e 9 t 4 T.,.#.z.. . ",
"; ; U.Q.Q.Q.Q.Q.Q.Q.Q.V.J Z 1 . . . . . L W.X.Y.Z.u `.,.T  +. . ",
". . .+Q.Q.++@+#+$+Q.Q.%+&+*+=+-+. ;+>+>+,+'+)+!+~+{+]+^+/+(+. . ",
". . .+Q.Q._+:+<+#+Q.Q.[+}+Q.Q.|+. >+Q.Q.1+2+Q.Q.3+Q.Q.Q.4+5+. . ",
". . .+Q.Q.6+@+7+8+Q.Q.9+%+Q.Q.0+, a+Q.Q.b+c+Q.Q.Q.Q.Q.Q.Q.d+. . ",
". . .+Q.Q.Q.Q.Q.Q.Q.% e+f+Q.Q.g+0 h+Q.Q.i+j+Q.Q.k+l+m+Q.Q..+. . ",
". . .+Q.Q.Q.Q.Q.Q.Q.n+o+$.Q.Q.p+c q+Q.Q.r+s+Q.Q.t+7.u+Q.Q..+. . ",
". . .+Q.Q.m+v+w+x+Q.Q.}+y+Q.Q.z+< A+Q.Q.q+B+Q.Q.b+P C+Q.Q..+. . ",
". . .+Q.Q.D+E+m F+Q.Q.G+G+Q.Q.H+I+J+Q.Q.d K+Q.Q.L+e M+Q.Q..+. . ",
". . .+Q.Q.N+e e F+Q.Q.O+P+Q.Q.Q+R+S+Q.Q.B+K+Q.Q.b+T+U+Q.Q..+. . ",
". . .+Q.Q..+_.e V+Q.Q.W+X+Q.Q.Q.Q.Q.Q.Q.H+Y+Q.Q.L+^.Z+Q.Q..+. . ",
". . >+Q.Q.>+. `+ @Q.Q..@+@@@Q.Q.Q.#@Q.Q.$@%@Q.Q.&@6 >+Q.Q.>+. . ",
". . ;+>+>+;+. . P.*@=@-@;@>@,@+.'@w+l )@!@~@{@]@^@. ;+>+>+;+. . ",
". . . . . . . . . /@(@% e J & _@:@%.<@d 9.=.z.'.. . . . . . . . ",
". . . . . . . . . . . 6 [@}@e e 4.S |@(@1@@ . . . . . . . . . . ",
". . . . . . . . . . . . . ; V  +6 6 '.; . . . . . . . . . . . . "};
