/* XPM */
static char * uvlayout_send_xpm[] = {
"32 32 307 2",
"  	c None",
". 	c #A9A9A8",
"+ 	c #A4A4A4",
"@ 	c #A5A5AA",
"# 	c #9999AB",
"$ 	c #8F9199",
"% 	c #0A0A12",
"& 	c #18182B",
"* 	c #1D262B",
"= 	c #333456",
"- 	c #8888C3",
"; 	c #A8A9A7",
"> 	c #96A196",
", 	c #78AC78",
"' 	c #698F65",
") 	c #50508E",
"! 	c #7575D1",
"~ 	c #4D4E8A",
"{ 	c #5E5EA8",
"] 	c #5A6499",
"^ 	c #666CAE",
"/ 	c #6D70B0",
"( 	c #B1B188",
"_ 	c #9B9B8A",
": 	c #5A9465",
"< 	c #6DC36D",
"[ 	c #69BC69",
"} 	c #66A56B",
"| 	c #4A4A82",
"1 	c #5F8484",
"2 	c #72CB72",
"3 	c #498249",
"4 	c #539453",
"5 	c #659A65",
"6 	c #949393",
"7 	c #7C867B",
"8 	c #6E706E",
"9 	c #39653A",
"0 	c #66B264",
"a 	c #97715F",
"b 	c #6B5143",
"c 	c #70C770",
"d 	c #2D502D",
"e 	c #010201",
"f 	c #060B06",
"g 	c #1D341D",
"h 	c #6868BB",
"i 	c #7373CE",
"j 	c #7B7BA6",
"k 	c #6B7D6B",
"l 	c #0A150A",
"m 	c #0B0B05",
"n 	c #86855E",
"o 	c #C36D6D",
"p 	c #B86767",
"q 	c #569956",
"r 	c #152715",
"s 	c #448344",
"t 	c #4D8A4D",
"u 	c #5CA95C",
"v 	c #575B98",
"w 	c #5C5CA3",
"x 	c #464656",
"y 	c #9A9C99",
"z 	c #518D50",
"A 	c #93665A",
"B 	c #935353",
"C 	c #A55C5C",
"D 	c #D57878",
"E 	c #4D583C",
"F 	c #213C21",
"G 	c #3C6B3C",
"H 	c #3C6145",
"I 	c #447944",
"J 	c #05060A",
"K 	c #8B8B93",
"L 	c #577956",
"M 	c #62A15D",
"N 	c #8E5C55",
"O 	c #1C1010",
"P 	c #8A4D4D",
"Q 	c #69463D",
"R 	c #414172",
"S 	c #131322",
"T 	c #282847",
"U 	c #47477F",
"V 	c #889188",
"W 	c #599D5A",
"X 	c #321C1C",
"Y 	c #824949",
"Z 	c #140B0B",
"` 	c #A85E5E",
" .	c #754241",
"..	c #4B7F52",
"+.	c #284728",
"@.	c #3A3A64",
"#.	c #1D1D34",
"$.	c #3D3D6C",
"%.	c #345937",
"&.	c #766349",
"*.	c #BD6A6A",
"=.	c #452828",
"-.	c #9D5858",
";.	c #0E1B0E",
">.	c #161629",
",.	c #6161AC",
"'.	c #AAAA98",
").	c #1B570F",
"!.	c #5D7834",
"~.	c #35661E",
"{.	c #667A39",
"].	c #022501",
"^.	c #291A19",
"/.	c #633838",
"(.	c #A8A87E",
"_.	c #434243",
":.	c #856A4A",
"<.	c #262616",
"[.	c #68A440",
"}.	c #658B38",
"|.	c #7B4945",
"1.	c #593431",
"2.	c #417441",
"3.	c #002D00",
"4.	c #0E0E1B",
"5.	c #282846",
"6.	c #56569A",
"7.	c #B4B465",
"8.	c #282322",
"9.	c #3C2924",
"0.	c #9E9E58",
"a.	c #2F2F1B",
"b.	c #4A4A2A",
"c.	c #B7B769",
"d.	c #80AE48",
"e.	c #5B8C38",
"f.	c #6E543D",
"g.	c #828283",
"h.	c #656855",
"i.	c #003B00",
"j.	c #363661",
"k.	c #535393",
"l.	c #5B5B8C",
"m.	c #221414",
"n.	c #A6A65D",
"o.	c #939352",
"p.	c #ADAD60",
"q.	c #B2AF64",
"r.	c #3A6563",
"s.	c #506B47",
"t.	c #465B69",
"u.	c #646577",
"v.	c #A9A98E",
"w.	c #9A9A56",
"x.	c #787867",
"y.	c #70787C",
"z.	c #4B4B4D",
"A.	c #51647B",
"B.	c #969682",
"C.	c #6D6C6C",
"D.	c #0F0808",
"E.	c #462827",
"F.	c #4E2C2B",
"G.	c #787843",
"H.	c #676766",
"I.	c #034203",
"J.	c #192C19",
"K.	c #4F4F8A",
"L.	c #515165",
"M.	c #838383",
"N.	c #969695",
"O.	c #959694",
"P.	c #525151",
"Q.	c #FFFFFF",
"R.	c #4E5142",
"S.	c #59599C",
"T.	c #72736F",
"U.	c #517D65",
"V.	c #161628",
"W.	c #70706F",
"X.	c #313156",
"Y.	c #515191",
"Z.	c #6464B3",
"`.	c #0C7007",
" +	c #1E6215",
".+	c #409636",
"++	c #44A143",
"@+	c #556785",
"#+	c #1A1A2F",
"$+	c #707070",
"%+	c #120B0B",
"&+	c #201F12",
"*+	c #414173",
"=+	c #030407",
"-+	c #090912",
";+	c #2D2D4E",
">+	c #3E3E4C",
",+	c #2C2D23",
"'+	c #424324",
")+	c #4F2E2B",
"!+	c #929A51",
"~+	c #4B722B",
"{+	c #0E381A",
"]+	c #2D6051",
"^+	c #323755",
"/+	c #1F371F",
"(+	c #493828",
"_+	c #404072",
":+	c #303056",
"<+	c #000100",
"[+	c #7F8188",
"}+	c #323331",
"|+	c #462E28",
"1+	c #A0A059",
"2+	c #8E8E51",
"3+	c #223615",
"4+	c #1F1F11",
"5+	c #3A3B24",
"6+	c #494929",
"7+	c #434339",
"8+	c #323258",
"9+	c #384458",
"0+	c #425F42",
"a+	c #84844A",
"b+	c #70703E",
"c+	c #555530",
"d+	c #2B2B4C",
"e+	c #08080F",
"f+	c #151525",
"g+	c #2D4F2C",
"h+	c #43322A",
"i+	c #482F2A",
"j+	c #5E5E34",
"k+	c #16160C",
"l+	c #2D2E26",
"m+	c #5E5E5D",
"n+	c #202117",
"o+	c #254225",
"p+	c #132213",
"q+	c #365E35",
"r+	c #3F2323",
"s+	c #37371F",
"t+	c #414125",
"u+	c #646456",
"v+	c #3F403D",
"w+	c #15150C",
"x+	c #305730",
"y+	c #447642",
"z+	c #040704",
"A+	c #472828",
"B+	c #503830",
"C+	c #161312",
"D+	c #080804",
"E+	c #1C1C33",
"F+	c #2F2F55",
"G+	c #28422D",
"H+	c #3A683A",
"I+	c #2B4D2B",
"J+	c #467D46",
"K+	c #432525",
"L+	c #0B0606",
"M+	c #7F7777",
"N+	c #4B4B4B",
"O+	c #363636",
"P+	c #0D0D07",
"Q+	c #2A2B4C",
"R+	c #284828",
"S+	c #0B150B",
"T+	c #3E6D3E",
"U+	c #4F8D4F",
"V+	c #542F2F",
"W+	c #292918",
"X+	c #393920",
"Y+	c #305630",
"Z+	c #407340",
"`+	c #5D3434",
" @	c #311C1B",
".@	c #494848",
"+@	c #212113",
"@@	c #1C1C1C",
"#@	c #335C33",
"$@	c #2E4F30",
"%@	c #497F49",
"&@	c #2E1919",
"*@	c #1F1413",
"=@	c #6B6B6B",
"-@	c #0C0C18",
";@	c #1E1E36",
">@	c #23233F",
",@	c #26392F",
"'@	c #122212",
")@	c #355F35",
"!@	c #35563D",
"~@	c #512F2E",
"{@	c #2E1F1C",
"]@	c #231F1E",
"^@	c #898A88",
"/@	c #7B7A7A",
"(@	c #2A2A2B",
"_@	c #232437",
":@	c #2B4135",
"<@	c #366136",
"[@	c #5B5B5D",
"}@	c #1A1D22",
"|@	c #0C1110",
"1@	c #706B6B",
"2@	c #78788C",
". . . . . . . . . . . . . . + + @ . . . . . . . . . . . . . . . ",
". . . . . . . . . . . . # $ % % & * = - @ . . . . . . . . . . . ",
". . . . . . . . ; > , ' ) ! ~ ~ { ] ] ^ / ( _ ; . . . . . . . . ",
". . . . . . . . > : < [ } | 1 } 2 3 4 2 2 5 6 7 + . . . . . . . ",
". . . . . . . 8 9 [ [ 0 a b c 2 d e f g < 0 h i j . . . . . . . ",
". . . . . . k l m 4 n o o p q [ r d s e t u v h w x @ @ . . . . ",
". . . . ; y 3 q z A B C D o E 0 F G H f I t | w = J K @ . . . . ",
". . . ; ; L 4 M N O e e P o Q 4 t G l r 9 9 R ~ S T U # . . . . ",
". . . . V I W A X X Y Z X `  ...G +.l J +.+.@.S @.#.$.j . . . . ",
". . ; ; %.t &.C e P *.=.O -. .9 +.r f e ;.>.#.e >.% $.,.'.. . . ",
". . . ' ).!.~.{.].Q o ^.=.C /.+.e e e e e % >.#.>.e #.{ (.. . . ",
". . . _.e :.<.e {.[.}.l |.B 1.g 2.} s 3.e J 4.5.#.% ) 6.7.. . . ",
". . . 8.9.&.0.a.b.c.c.d.e.f.=.g.. . . h.i.e ;.* 5.j.k.l.7.'.@ . ",
". . . m. .f.n.o.p.q.7.n l.r.s.. . . . @ r 3.f l d H t.u.p.v.. . ",
". . 6 O  .Q w.7.n.7.x.,.6.U y.. . . . . z.i.e e 9 3 q A.u.B.. . ",
". . C.D.E.F.G.o.w.u.,.w | 4.g.. . . . . H.I.f J.I z 4 w K.L.M.N.",
"; O.P.Q.Q.Q.Q.R.S.,.{ ,.R e K . . . . . T.i.e 9 t 4 U.,.V.Q.Q.M.",
"O.W.Q.Q.Q.Q.Q.X.Y.{ Z.~ J Z 1 . . . . . L `. +.+++u @+,.#+Q.Q.$+",
"M.Q.Q.%+&+Q.Q.Q.U { *+=+-+;+>+; N.M.M.M.,+'+)+0.!+~+{+]+^+Q.Q.$+",
"$+Q.Q.&+/+(+Q.Q._+:+<+Q.Q.Q.4.[+M.Q.Q.}+Q.Q.|+1+2+Q.Q.Q.3+Q.Q.$+",
"$+Q.Q.Q.4+5+6+7+8+<+Q.Q.Q.Q.Q.9+0+Q.Q.Q.Q.Q.Q.a+b+Q.Q.Q.Q.Q.Q.$+",
"M.Q.Q.Q.Q.Q.4+c+d+Q.Q.e+#+f+Q.Q.g+Q.Q.h+i+Q.Q.j+Q.Q.Q.k+l+Q.Q.$+",
"N.M.m+Q.Q.Q.Q.Q.n+Q.Q.Q.Q.Q.Q.Q.o+Q.Q.p+q+Q.Q.r+Q.Q.s+t+u+Q.Q.$+",
"N.M.$+$+v+Q.Q.Q.w+Q.Q.Q.Q.Q.Q.Q.x+Q.Q.y+z+Q.Q.A+Q.Q.B+&.W.Q.Q.$+",
"M.Q.Q.M.N.C+Q.Q.D+Q.Q.E+F+X.G+H+I+Q.Q.J+d Q.Q.K+Q.Q.L+M+$+Q.Q.$+",
"M.Q.Q.N+$+O+Q.Q.P+s+Q.Q.Q+R+Q.Q.S+Q.Q.T+U+Q.Q.V+Q.Q.Q.m+N+Q.Q.$+",
"N.$+Q.Q.Q.Q.Q.<+W+X+Q.Q.Q.Q.Q.Y+<+Q.Q.Z+J+Q.Q.`+ @Q.Q.Q.Q.Q.Q.$+",
". N.$+Q.Q.Q.$+.@m +@@@Q.Q.Q.#@$@<+Q.Q.p+%@Q.Q.&@*@Q.Q.Q.N+Q.Q.M.",
". . N.M.$+M.N.. =@J -@V.;@>@,@G '@<+l )@!@~@{@]@^@M.$+M.M.M.M.N.",
". . . . . . . . . /@(@% e J & _@:@%.<@d 9.=.z.'.. . . . . . . . ",
". . . . . . . . . . . 6 [@}@e e 4.S |@(@1@@ . . . . . . . . . . ",
". . . . . . . . . . . . . ; V 2@6 6 '.; . . . . . . . . . . . . "};
